<svg class="jss110" width="100%" height="100%" viewBox="0 0 1024 1024" xmlns="http://www.w3.org/2000/svg" style="display: flex; vertical-align: middle; min-width: auto;"><path d="M527.675 199.387l240.636 593.944-363.473-286.337zM955.164 930.14l-370.146-890.828c-8.593-23.128-30.475-39.309-56.137-39.309-0.424 0-0.847 0.004-1.27 0.013l0.063-0.001c-0.417-0.010-0.908-0.016-1.401-0.016-26.031 0-48.299 16.105-57.386 38.896l-0.147 0.417-406.263 977.123h138.981l160.835-402.859 479.93 387.723c13.245 13.21 31.217 21.687 51.16 22.675l0.183 0.007c0.473 0.012 1.031 0.019 1.59 0.019 36.654 0 66.367-29.713 66.367-66.367 0-0.022 0-0.045 0-0.067v0.003c-0.685-10.043-2.95-19.375-6.552-28.010l0.215 0.582z" fill="rgb(255, 255, 255)"></path></svg>