<svg class="jss110" width="100%" height="100%" viewBox="0 0 1024 1024" xmlns="http://www.w3.org/2000/svg" style="display: flex; vertical-align: middle; min-width: auto;"><path d="M988.303 795.218c-24.515 21.555-53.76 35.625-81.623 51.907-9.83 5.724-19.794 10.762-31.611 4.035-6.799-3.891-13.793-6.226-16.906 5.12-13.015 47.237-62.464 47.831-93.573 71.926-2.005 0.796-4.328 1.257-6.758 1.257-4.029 0-7.762-1.268-10.821-3.427l0.059 0.040c-28.959-24.74-78.551-23.828-89.088-71.383-0.363-3.652-3.418-6.48-7.135-6.48-1.578 0-3.037 0.51-4.221 1.374l0.020-0.014c-27.443 14.111-43.571-10.373-64.44-18.575-41.513-16.261-55.091-45.312-52.869-90.511 1.853-37.519 7.096-65.812 45.926-79.032 8.198-3.895 15.259-8.334 21.728-13.484l-0.224 0.172c-4.096-14.52-16.558-17.254-25.999-21.053-32.85-13.24-41.851-36.465-40.643-70.881 2.447-69.632 42.813-114.862 114.033-120.422 6.298-0.481 11.633 1.516 15.002-5.929 16.036-35.389 54.272-41.236 82.196-60.774 5.222-3.346 11.592-5.334 18.427-5.334 9.186 0 17.534 3.59 23.716 9.445l-0.016-0.015c25.057 19.261 59.392 24.812 76.237 57.344 6.646 12.759 29.184-1.024 44.37 9.216 27.648 18.76 58.481 32.922 84.204 54.886v105.165c-17.889 11.018-35.389 22.723-53.76 32.922-17.039 9.441-15.145 16.517 0.276 25.385 19.292 11.069 41.83 17.94 53.494 39.424zM837.591 624.005c-7.578-7.967 13.312-32.348-12.739-31.683-39.465 1.024-77.824 70.922-60.293 104.366 3.164 6.021 6.595 5.755 11.612 5.018 31.109-4.516 61.481-41.667 61.42-77.701zM693.34 573.061c80.794 49.981 50.627 48.681 130.386 0.205-66.068-51.558-64.625-50.77-130.386-0.205zM693.34 768.645c67.277 51.2 63.252 51.272 130.345-0.225-65.679-46.008-65.679-46.008-130.294 0.174zM822.538 497.377c64.42 47.606 76.8 47.514 122.941 0.481-65.352-45.476-65.352-45.476-122.9-0.532zM682.568 588.411c-8.632 73.554-4.721 81.551 45.865 106.844 14.817 7.424 21.238 8.018 23.183-11.704 5.407-54.753-0.42-64.154-68.997-95.191zM763.771 859.638c5.12 8.847-8.335 32.184 9.441 30.72 24.576-2.76 45.695-15.627 59.39-34.282l0.166-0.237c11.96-17.111 4.905-40.868 3.164-61.686-0.553-6.779-7.168-4.813-11.848-4.096-33.257 6.948-58.209 35.071-60.253 69.363l-0.010 0.208zM821.391 694.764c73.574 48.722 59.924 50.719 124.109 2.181-61.164-45.312-67.789-45.425-124.109-2.181zM694.661 497.848c-9.216-14.592-23.552-17.644-34.816-24.668-21.053-13.056-72.366 0.829-84.869 21.627-6.144 10.148 2.744 12.022 8.192 16.22 42.086 32.256 48.527 31.59 111.493-13.148zM696.177 693.914c-59.679-43.704-78.592-42.609-124.252 7.24 62.833 41.144 65.147 41.011 124.252-7.209zM683.151 789.586c-9.779 63.683-4.762 72.847 44.698 96.143 19.517 9.216 22.651 3.072 23.777-15.299 2.99-49.234-7.035-61.788-68.475-80.845zM957.061 518.083c-63.775 27.054-70.164 36.608-64.328 85.238 1.874 15.739 5.837 18.688 20.818 12.145 46.387-20.326 51.374-30.034 43.5-97.382zM956.324 718.848c-55.685 14.592-66.273 28.18-63.642 77.24 0.963 18.166 3.185 25.498 23.613 15.36 45.445-22.579 49.981-30.843 40.018-92.611zM698.307 426.271c53.248 41.349 64.666 42.148 106.271 12.81 12.288-8.632 15.626-12.81 0.963-23.276-41.492-29.696-47.923-29.809-107.233 10.465zM622.203 785.029c9.626-34.335-12.831-47.811-37.704-59.392-7.332-3.41-19.927-13.466-22.129-5.499-2.881 10.092-4.537 21.684-4.537 33.662 0 7.644 0.675 15.13 1.967 22.402l-0.113-0.768c5.059 27.576 33.311 34.068 53.832 39.014 15.237 3.604 5.478-19.507 8.694-29.43zM562.258 520.151c-9.482 62.013-5.059 71.127 37.202 92.918 19.169 9.871 22.528 4.096 23.552-14.612 2.857-49.541-3.072-58.040-60.754-78.316zM811.264 513.137c-4.946 10.65-7.537 25.774 1.649 30.259 24.001 10.234 40.52 33.628 40.52 60.881 0 2.651-0.156 5.265-0.46 7.833l0.030-0.311c-0.297 9.626 11.336 14.633 19.333 14.408 9.39-0.256 7.793-10.629 8.591-17.848 6.001-54.538-1.833-65.382-69.663-95.222zM638.403 627.927c19.794-2.048 29.051-12.554 26.89-32.205-0.342-1.905-0.537-4.098-0.537-6.336 0-16.21 10.241-30.029 24.606-35.338l0.261-0.084c16.773-7.834 25.6-19.538 16.036-38.666-70.687 25.528-76.329 34.857-67.256 112.63zM638.29 821.217c9.165-4.884 18.432-6.892 19.2-10.629 6.205-31.058 19.261-56.32 48.814-71.68 3.205-1.7 3.523-14.909 0.799-20.705-4.7-9.984-12.421-2.314-18.739 0.297-53.238 22.057-57.221 29.798-50.074 102.717zM877.906 789.33c12.718-45.056-17.736-53.832-41.329-66.222-7.813-4.096-18.483-20.091-27.218-4.536-1.569 2.948-2.49 6.447-2.49 10.16 0 9.616 6.176 17.789 14.777 20.769l0.154 0.047c15.002 6.984 29.696 14.797 28.836 34.908-0.666 15.053 3 31.631 19.333 30.464 20.531-1.464 5.847-21.975 7.977-25.59zM790.968 529.377c6.799-16.927-1.628-36.465 18.647-44.718 14.848-6.052 29.501-18.606 19.128-33.516-9.298-13.373-22.262 4.833-33.792 8.448-5.199 2.37-9.504 4.693-13.642 7.26l0.515-0.297c-11.117 4.908-18.735 15.836-18.735 28.542 0 1.527 0.11 3.028 0.322 4.496l-0.020-0.167c0.246 18.749 9.277 27.013 27.628 29.952zM690.616 442.696c-4.997 17.777-5.427 31.406 12.288 39.127 11.864 4.277 20.193 15.437 20.193 28.543 0 1.269-0.078 2.519-0.23 3.747l0.015-0.147c-0.317 5.868 0 14.94 6.963 14.592 7.492-0.688 13.873-4.897 17.535-10.937l0.057-0.102c5.816-19.057 10.24-39.26-13.199-51.517-14.080-7.393-28.119-15.043-43.581-23.306z" fill="rgb(0, 151, 57)"></path><path d="M457.441 274.852c-59.392 34.222-110.070 63.57-160.973 92.498-8.554 3.993-14.375 12.523-14.375 22.411 0 0.488 0.014 0.972 0.042 1.453l-0.003-0.066c0.317 59.72 0.164 119.419 0.164 185.825 38.369-21.811 71.567-40.663 104.735-59.556 11.96-6.799 23.552-14.336 35.84-20.48 11.018-5.499 22.333-5.755 29.112 6.892 1.529 2.606 2.432 5.74 2.432 9.085 0 7.369-4.383 13.714-10.683 16.571l-0.114 0.046c-53.996 31.386-107.96 62.904-162.816 92.733-16.466 8.96-33.905 2.202-49.848-7.168-54.999-32.236-109.957-64.573-165.601-95.662-20.762-10.388-34.768-31.492-34.768-55.867 0-1.832 0.079-3.645 0.234-5.437l-0.016 0.233q1.341-95.693 0-191.488c-0.096-1.278-0.151-2.767-0.151-4.27 0-23.44 13.363-43.76 32.886-53.756l0.341-0.158c56.556-32.020 112.753-64.717 168.96-97.454 8.824-5.587 19.568-8.904 31.085-8.904 12.181 0 23.495 3.709 32.876 10.060l-0.207-0.132c55.050 32.164 110.121 64.276 165.601 95.683 21.036 9.986 35.321 31.056 35.321 55.462 0 0.597-0.009 1.192-0.026 1.785l0.002-0.087c-0.297 53.791 0.092 107.602-0.184 161.382-0.072 13.681 0.737 30.372-18.719 30.72-21.944 0.461-20.797-17.797-20.941-32.594-0.461-47.186-0.205-94.392-0.205-149.76zM438.333 240.169c-57.498-33.28-106.936-62.054-156.549-90.481-7.352-4.219-15.514-10.609-24.402-5.591-54.538 30.792-108.831 62.034-168.438 96.123 57.18 32.891 106.936 61.256 156.396 90.112 5.036 3.662 11.344 5.859 18.165 5.859 6.178 0 11.935-1.802 16.775-4.909l-0.124 0.074c50.309-29.45 100.956-58.276 158.177-91.187zM244.050 576.614c0-67.031-0.072-127.939 0.072-188.846 0.031-0.416 0.049-0.901 0.049-1.391 0-7.373-4.076-13.794-10.097-17.134l-0.1-0.051c-52.685-30.28-105.472-60.549-164.014-94.208v189.716c-0.008 0.215-0.013 0.467-0.013 0.72 0 7.633 4.298 14.262 10.606 17.598l0.108 0.052c52.746 30.218 105.523 60.416 163.389 93.542z" fill="rgb(0, 151, 57)"></path><path d="M415.508 455.363c39.219 5.683 61.44 39.199 96.881 40.202 3.169 2.717 5.165 6.725 5.165 11.2 0 3.108-0.963 5.991-2.606 8.367l0.032-0.049c-6.144 6.144-19.978 10.629-23.255 3.779-15.094-31.406-54.2-32.645-76.216-63.498z" fill="rgb(0, 151, 57)"></path></svg>