<svg class="jss110" width="100%" height="100%" viewBox="0 0 1024 1024" xmlns="http://www.w3.org/2000/svg" style="display: flex; vertical-align: middle; min-width: auto;"><path d="M512.553 929.28c-72.274 0-144.558-0.307-216.832 0.266-1.094 0.143-2.359 0.224-3.643 0.224-11.751 0-21.908-6.826-26.723-16.729l-0.077-0.176q-108.851-191.017-219.331-381.082c-3.112-4.323-4.977-9.725-4.977-15.562 0-5.756 1.813-11.089 4.9-15.457l-0.056 0.084q110.817-191.099 220.508-382.843c4.344-9.301 13.62-15.631 24.374-15.631 0.843 0 1.676 0.039 2.499 0.115l-0.106-0.008q221.092 0.635 442.173 0c0.578-0.044 1.253-0.070 1.933-0.070 10.929 0 20.33 6.543 24.5 15.925l0.068 0.171q109.763 191.703 220.518 382.833c2.988 4.135 4.779 9.305 4.779 14.895 0 5.33-1.629 10.28-4.416 14.379l0.057-0.089q-110.776 191.119-220.549 382.812c-4.561 9.783-14.313 16.441-25.619 16.441-1.021 0-2.030-0.054-3.023-0.16l0.123 0.011c-73.687-0.748-147.384-0.348-221.082-0.348z" fill="rgb(127, 204, 244)"></path><path d="M512.911 823.962c-53.873 0-107.735-0.236-161.597 0.195-0.809 0.105-1.746 0.165-2.696 0.165-8.763 0-16.339-5.085-19.938-12.465l-0.058-0.131q-81.121-142.336-163.461-284.006c-2.321-3.223-3.712-7.25-3.712-11.603 0-4.29 1.351-8.264 3.652-11.52l-0.042 0.063q82.586-142.418 164.332-285.317c3.24-6.928 10.15-11.641 18.162-11.641 0.629 0 1.251 0.029 1.864 0.086l-0.079-0.006q164.772 0.471 329.533 0c0.433-0.033 0.938-0.052 1.447-0.052 8.143 0 15.148 4.875 18.256 11.865l0.050 0.127q81.797 142.868 164.342 285.307c2.228 3.082 3.564 6.937 3.564 11.104 0 3.971-1.213 7.659-3.29 10.713l0.043-0.066q-82.534 142.408-164.383 285.276c-3.399 7.293-10.667 12.256-19.095 12.256-0.762 0-1.515-0.041-2.256-0.12l0.092 0.008c-54.876-0.502-109.814-0.236-164.731-0.236z" fill="rgb(210, 237, 250)"></path><path d="M513.26 730.163c-37.468 0-74.936-0.164-112.394 0.133-0.572 0.075-1.233 0.119-1.905 0.119-6.089 0-11.35-3.543-13.835-8.68l-0.040-0.092q-56.422-99.011-113.664-197.53c-1.613-2.241-2.58-5.042-2.58-8.069 0-2.983 0.939-5.746 2.538-8.011l-0.029 0.044q57.446-99.062 114.299-198.451c2.253-4.822 7.062-8.104 12.638-8.104 0.436 0 0.867 0.020 1.292 0.059l-0.055-0.004q114.606 0.328 229.202 0c0.303-0.023 0.655-0.037 1.011-0.037 5.664 0 10.535 3.391 12.696 8.253l0.035 0.088q56.893 99.328 114.309 198.441c1.544 2.146 2.469 4.826 2.469 7.723 0 2.764-0.842 5.331-2.284 7.459l0.030-0.047q-57.426 99.062-114.319 198.431c-2.367 5.067-7.421 8.516-13.28 8.516-0.531 0-1.055-0.028-1.571-0.083l0.064 0.006c-38.226-0.317-76.421-0.164-114.627-0.164z" fill="rgb(230, 85, 92)"></path></svg>