<svg class="jss110" width="100%" height="100%" viewBox="0 0 1024 1024" xmlns="http://www.w3.org/2000/svg" style="display: flex; vertical-align: middle; min-width: auto;"><path d="M501.484 792.381c0 16.384-0.369 32.84 0.154 49.234 0.256 8.038-2.427 10.24-10.24 9.513-117.105-11.264-208.558-65.382-267.909-167.178-58.368-100.086-62.054-204.923-15.421-311.214 6.973-15.892 7.168-15.954 22.477-7.168 23.276 13.312 46.449 26.88 69.632 40.325 17.797 10.312 17.408 10.035 25.6-3.072 9.687-15.36-5.837-15.575-12.206-19.456-24.73-15.268-50.002-29.696-75.418-43.786-7.383-4.096-8.325-7.014-3.4-14.141 61.609-90.166 163.929-148.578 279.892-148.578 115.218 0 216.969 57.664 277.965 145.707l0.734 1.12c5.12 7.782 6.083 11.479-3.379 16.589-25.907 13.967-51.354 28.836-76.483 44.175-5.612 3.42-19.456 4.096-10.568 17.336 9.667 14.449 4.536 16.067 23.071 5.693q39.506-22.17 78.418-45.384c7.424-4.444 10.24-3.072 13.947 4.475 21.274 42.997 33.721 93.62 33.721 147.15 0 139.427-84.442 259.132-204.975 310.764l-2.202 0.839c-30.679 12.864-66.239 21.935-103.411 25.485l-1.488 0.115c-9.093 0.891-12.442-0.758-12.288-10.711 0.573-32.072-0.358-64.174 0.41-96.256 0.328-13.609-8.264-9.687-15.421-10.527-8.55-1.024-11.715 1.833-11.356 10.772 0.645 16.015 0.184 32.072 0.184 48.128zM723.22 417.475c-8.591 1.362-9.329 5.274-6.083 13.128 10.685 24.852 16.898 53.779 16.898 84.157 0 67.682-30.843 128.161-79.24 168.148l-0.368 0.295c-29.756 25.027-66.883 42.217-107.688 47.936l-1.133 0.13c-4.547 0.635-12.687-1.536-10.547 8.315-0.195 32.768-0.287 65.597-0.676 98.396-0.072 5.642 2.13 7.24 7.281 6.472 9.943-1.495 19.978-2.417 29.839-4.332 112.292-21.77 194.56-83.671 243.282-187.126 41.216-87.419 41.462-176.845 5.315-266.435-8.52-21.125-8.356-21.279-27.74-9.912-23.091 13.548-46.971 25.754-69.14 40.827zM514.929 726.815c0.036 0 0.079 0 0.122 0 117.581 0 212.9-95.319 212.9-212.9s-95.319-212.9-212.9-212.9c-117.581 0-212.9 95.319-212.9 212.9 0 0.147 0 0.295 0 0.442l-0-0.023c0.099 117.371 95.27 212.48 212.654 212.48 0.043 0 0.086-0 0.13-0l-0.007 0zM487.67 844.687c6.615 1.874 7.27-2.765 7.168-9.39-0.246-30.208-0.594-60.416 0.164-90.634 0.246-9.728-3.072-12.349-12.042-13.67-106.766-15.96-187.718-107.020-187.718-216.987 0-29.876 5.975-58.356 16.795-84.31l-0.536 1.45c3.205-7.895 1.413-10.947-5.253-14.705q-39.936-22.528-79.258-45.947c-6.81-4.096-9.718-3.215-13.087 4.096-19.416 40.839-30.753 88.741-30.753 139.291 0 77.094 26.371 148.029 70.584 204.277l-0.54-0.712c59.167 75.551 137.82 116.531 234.465 127.232zM519.967 182.61c-0.138-0-0.301-0-0.464-0-60.455 0-117.299 15.461-166.794 42.644l1.8-0.906c-44.593 24.901-81.626 58.195-110.070 98.041l-0.686 1.011c-4.096 5.673-5.734 9.042 2.314 13.445q39.69 21.709 78.418 45.179c8.192 4.966 12.175 3.441 18.002-3.82 40.373-51.172 102.386-83.722 172-83.722 69.861 0 132.067 32.781 172.073 83.799l0.359 0.475c5.468 6.82 9.37 8.192 17.091 3.594 24.904-14.95 50.278-29.123 75.418-43.674 12.093-6.994 12.237-7.168 4.024-18.135-59.785-82.545-155.194-136.114-263.204-137.98l-0.292-0.004z" fill="rgb(37, 39, 36)"></path><path d="M551.004 51.814c179.901 15.076 329.625 130.123 394.475 288.856l1.127 3.117c3.973 9.81 3.133 14.234-7.66 17.408-23.941 6.984-47.739 14.602-71.219 23.030-10.015 3.594-13.548 0.092-17.091-8.509-30.682-74.568-83.442-134.87-150.059-174.194l-1.667-0.91c-45.12-27.325-98.873-45.049-156.409-49.019l-1.102-0.061c-9.544-0.696-12.759-3.461-12.462-13.24 0.696-23.091 0.092-46.223 0.246-69.345 0.154-22.077-1.413-17.377 21.821-17.132zM536.351 100.557c0 10.445 0.696 20.951-0.205 31.314-0.85 9.667 2.417 12.401 12.042 13.22 138.789 12.682 254.367 100.509 306.59 221.999l0.918 2.4c3.328 8.049 6.717 9.216 14.592 6.431 21.023-7.547 42.291-14.428 63.631-21.033 6.461-2.048 8.581-4.27 5.325-10.793-4.157-8.315-7.311-17.121-11.387-25.487-50.739-105.678-137.921-187.103-244.895-229.167l-3.087-1.070c-39.653-16.046-85.563-26.679-133.551-29.634l-1.249-0.062c-7.035-0.471-9.155 1.372-8.827 8.356 0.492 11.131 0.102 22.344 0.102 33.526z" fill="rgb(37, 40, 41)"></path><path d="M162.755 420.751c-4.697 17.767-8.43 38.975-10.448 60.681l-0.12 1.599q-12.339 184.904 126.7 307.374c7.516 6.625 9.544 10.865 2.755 19.569-16.046 20.572-31.078 41.984-46.182 63.232-3.973 5.612-6.697 6.144-12.104 1.464-144.824-124.928-198.758-280.852-159.969-468.378 4.485-21.678 5.12-21.504 26.132-14.776 21.996 7.055 44.032 14.008 65.997 21.094 4.147 1.331 9.4 2.058 7.24 8.141zM77.169 394.609c-6.072-0.317-4.864 4.639-5.683 7.803-8.928 33.172-14.056 71.256-14.056 110.539 0 24.385 1.976 48.309 5.777 71.62l-0.343-2.549c17.335 114.466 75.449 212.927 158.79 282.020l0.749 0.604c5.591 4.762 8.059 3.697 11.858-1.731 12.616-18.002 25.303-35.994 38.789-53.35 5.571-7.168 5.038-10.865-1.894-16.681-30.049-25.354-55.264-55.263-74.859-88.852l-0.866-1.608c-32.551-53.469-51.82-118.132-51.82-187.294 0-30.666 3.788-60.448 10.922-88.902l-0.533 2.512c1.577-6.82 0.317-9.748-6.707-11.796-18.575-5.427-36.864-11.776-55.296-17.736-4.956-1.546-9.943-3.062-14.828-4.598z" fill="rgb(36, 39, 41)"></path><path d="M978.954 512.727c-3.072 146.094-59.392 266.865-171.94 361.011-6.799 5.683-9.728 4.782-14.438-1.956-14.735-21.064-29.614-42.066-45.435-62.3-6.554-8.387-4.567-12.595 2.632-18.596 39.74-33.145 71.644-74.267 93.483-121.033l0.899-2.144c21.659-44.676 34.319-97.172 34.319-152.626 0-30.589-3.852-60.278-11.098-88.609l0.536 2.469c-2.54-10.598-0.85-14.94 10.015-18.033 24.678-7.014 49.039-15.237 73.308-23.624 7.086-2.447 9.953-1.26 11.571 6.011 3.973 17.797 8.684 35.441 11.172 53.555 2.938 19.608 4.739 42.42 4.975 65.608l0.002 0.266zM971.837 513.894c0.014-1.222 0.022-2.665 0.022-4.11 0-21.804-1.826-43.182-5.332-63.989l0.313 2.246c-2.437-15.432-6.195-30.648-9.001-46.080-1.188-6.564-3.441-8.581-10.373-6.144-20.767 7.168-41.605 14.254-62.751 20.122-9.943 2.755-10.854 6.82-8.765 16.128 6.038 24.844 9.501 53.367 9.501 82.699 0 47.359-9.028 92.609-25.456 134.124l0.861-2.469c-22.589 58.89-58.144 108.462-103.363 147.038l-0.502 0.418c-6.42 5.478-6.144 8.827-1.382 15.043 12.902 16.876 25.6 33.997 37.315 51.681 5.652 8.509 9.308 8.294 16.66 1.905 105.974-92.18 159.171-208.742 162.253-348.621z" fill="rgb(36, 39, 41)"></path><path d="M514.212 977.439c-92.613-0.25-178.843-27.364-251.369-73.956l1.861 1.119c-9.861-6.205-9.155-10.394-2.918-18.504 14.766-19.19 29.112-38.738 42.732-58.757 5.775-8.489 10.117-10.117 19.272-4.291 49.069 31.585 108.428 51.348 172.21 53.973l0.692 0.023c5.818 0.339 12.624 0.532 19.474 0.532 68.976 0 133.38-19.574 187.961-53.471l-1.519 0.879c16.384-9.892 12.636-9.81 22.999 4.25 13.926 18.893 27.372 38.164 41.708 56.74 6.246 8.090 6.963 12.411-2.908 18.627-70.86 45.576-157.345 72.706-250.159 72.837l-0.035 0zM514.212 970.117c0.819 0.006 1.788 0.009 2.757 0.009 21.844 0 43.287-1.716 64.202-5.021l-2.314 0.301c67.411-9.505 127.96-32.612 180.946-66.505l-1.807 1.081c4.803-3.011 7.322-4.997 2.949-10.793q-21.504-28.549-42.107-57.856c-3.615-5.12-6.144-4.178-10.742-1.546q-193.096 110.592-386.447 0.266c-6.205-3.533-8.602-2.478-12.288 2.683-12.902 18.268-25.989 36.403-39.465 54.272-4.731 6.257-5.192 9.216 2.509 13.967 68.697 43.256 152.217 68.981 241.734 69.14l0.043 0z" fill="rgb(36, 39, 41)"></path><path d="M499.814 101.468c0 12.677-0.573 25.395 0.205 38.021 0.553 8.919-2.826 11.315-11.264 11.93-52.072 3.513-100.1 17.742-142.913 40.487l1.919-0.93c-76.055 39.459-135.029 102.982-167.725 180.32l-0.886 2.361c-5.908 13.906-5.796 14.1-19.948 9.564-23.757-7.629-47.391-15.667-71.219-23.060-7.526-2.335-10.045-4.884-6.717-13.199 66.39-166.503 221.397-284.3 405.208-295.615l1.32-0.065c10.527-0.666 12.667 2.724 12.134 12.165-0.666 12.636-0.113 25.344-0.113 38.021zM492.728 101.468c0-11.93-0.297-23.869 0.123-35.779 0.215-6.031-1.772-7.465-7.649-7.117-15.649 0.874-30.127 2.604-44.31 5.179l2.162-0.326c-167.639 30.536-284.887 124.518-353.014 280.412-2.632 6.011-2.417 8.786 4.731 10.926 21.023 6.328 41.984 12.954 62.556 20.623 9.308 3.471 12.923 1.649 16.804-7.444 31.927-74.677 85.753-134.889 153.335-173.956l1.75-0.933c43.281-26.095 94.7-43.268 149.719-47.68l1.229-0.079c10.967-0.829 13.722-4.547 12.759-14.705-0.922-9.646-0.195-19.456-0.205-29.102z" fill="rgb(35, 38, 40)"></path><path d="M514.929 726.815c-0.207 0.001-0.451 0.001-0.696 0.001-117.581 0-212.9-95.319-212.9-212.9s95.319-212.9 212.9-212.9c117.484 0 212.742 95.16 212.9 212.607l0 0.015c0.001 0.24 0.002 0.525 0.002 0.809 0 117.23-94.988 212.275-212.196 212.367l-0.009 0zM513.772 626.637c61.996-0.282 112.144-50.604 112.144-112.639 0-62.209-50.431-112.64-112.64-112.64-61.572 0-111.605 49.402-112.624 110.731l-0.001 0.096c-0.002 0.235-0.003 0.512-0.003 0.79 0 62.585 50.582 113.356 113.095 113.663l0.029 0z" fill="rgb(238, 154, 154)"></path><path d="M487.67 844.677c-96.655-10.711-175.309-51.681-234.424-127.212-43.673-55.535-70.044-126.47-70.044-203.564 0-50.55 11.338-98.453 31.609-141.303l-0.856 2.011c3.369-7.332 6.277-8.192 13.087-4.096q39.332 23.47 79.258 45.947c6.666 3.758 8.448 6.81 5.253 14.705-10.285 24.505-16.26 52.986-16.26 82.862 0 109.964 80.946 201.021 186.503 216.837l1.205 0.148c9.011 1.321 12.288 3.932 12.042 13.67-0.748 30.198-0.399 60.416-0.164 90.634 0.051 6.595-0.594 11.233-7.209 9.359z" fill="rgb(173, 210, 174)"></path><path d="M519.956 182.6c108.294 1.858 203.702 55.407 262.832 136.971l0.664 0.962c8.192 10.916 8.059 11.141-4.024 18.135-25.149 14.551-50.514 28.672-75.418 43.674-7.721 4.639-11.633 3.236-17.091-3.594-40.366-51.494-102.571-84.275-172.432-84.275-69.615 0-131.627 32.549-171.648 83.259l-0.352 0.462c-5.827 7.26-9.779 8.786-18.002 3.82q-38.738-23.388-78.418-45.179c-8.038-4.403-6.369-7.772-2.314-13.445 29.13-40.857 66.162-74.15 109.079-98.189l1.677-0.863c47.695-26.278 104.54-41.739 164.996-41.739 0.159 0 0.317 0 0.476 0l-0.025-0z" fill="rgb(172, 209, 173)"></path><path d="M723.22 417.475c22.17-15.073 46.080-27.279 69.13-40.817 19.374-11.366 19.21-11.264 27.74 9.912 36.147 89.6 35.891 179.016-5.325 266.435-48.763 103.424-130.99 165.356-243.282 187.126-9.851 1.915-19.896 2.836-29.839 4.332-5.12 0.778-7.352-0.829-7.281-6.472 0.389-32.768 0.481-65.597 0.676-98.396 14.504-0.32 28.361-2.543 41.505-6.428l-1.119 0.284c97.228-28.377 167.056-116.71 167.056-221.351 0-15.818-1.596-31.264-4.635-46.185l0.252 1.48c-3.441-17.162-10.568-33.096-14.879-49.92z" fill="rgb(175, 211, 175)"></path><path d="M723.22 417.475c4.311 16.824 11.448 32.768 14.879 49.9 2.787 13.44 4.383 28.886 4.383 44.704 0 104.642-69.828 192.974-165.428 220.943l-1.627 0.408c-12.025 3.601-25.883 5.824-40.21 6.141l-0.177 0.003c-2.14-9.851 6.001-7.68 10.547-8.315 41.938-5.85 79.064-23.040 109.148-48.335l-0.328 0.268c48.765-40.282 79.608-100.761 79.608-168.443 0-30.378-6.213-59.305-17.439-85.58l0.54 1.423c-3.215-7.844-2.478-11.756 6.103-13.117z" fill="rgb(150, 195, 154)"></path><path d="M536.351 100.567c0-11.192 0.389-22.395-0.143-33.556-0.328-6.984 1.792-8.827 8.827-8.356 49.235 3.017 95.146 13.65 137.767 30.747l-2.967-1.051c110.061 43.133 197.243 124.558 246.8 227.511l1.182 2.726c4.096 8.356 7.229 17.172 11.387 25.487 3.256 6.523 1.137 8.796-5.325 10.793-21.34 6.605-42.609 13.486-63.631 21.033-7.885 2.826-11.264 1.618-14.602-6.431-53.134-123.88-168.694-211.702-306.023-224.293l-1.444-0.107c-9.626-0.819-12.892-3.553-12.042-13.22 0.922-10.342 0.215-20.838 0.215-31.283z" fill="rgb(166, 218, 246)"></path><path d="M77.169 394.609c4.884 1.526 9.871 3.072 14.828 4.659 18.432 5.96 36.721 12.288 55.296 17.736 7.025 2.048 8.284 4.977 6.707 11.796-6.601 25.942-10.389 55.724-10.389 86.39 0 69.163 19.269 133.825 52.732 188.911l-0.912-1.616c20.461 35.197 45.675 65.106 75.221 90.045l0.504 0.415c6.932 5.816 7.475 9.503 1.894 16.681-13.486 17.357-26.163 35.338-38.789 53.35-3.799 5.417-6.267 6.482-11.858 1.731-84.090-69.697-142.204-168.157-159.226-280.119l-0.313-2.505c-3.458-20.762-5.434-44.686-5.434-69.071 0-39.283 5.128-77.368 14.752-113.622l-0.696 3.083c0.819-3.226-0.389-8.182 5.683-7.864z" fill="rgb(166, 219, 247)"></path><path d="M971.837 513.894c-3.072 139.868-56.32 256.41-162.253 348.559-7.352 6.39-11.008 6.605-16.66-1.905-11.756-17.684-24.412-34.816-37.315-51.681-4.751-6.216-5.038-9.564 1.382-15.043 45.721-38.994 81.276-88.566 103.030-144.994l0.834-2.462c15.554-39.031 24.574-84.264 24.574-131.603 0-29.332-3.463-57.855-10.002-85.183l0.502 2.483c-2.048-9.308-1.167-13.373 8.765-16.128 21.156-5.868 41.984-12.943 62.751-20.122 6.932-2.396 9.216-0.379 10.373 6.144 2.796 15.36 6.564 30.607 9.001 46.080 3.206 18.597 5.038 40.014 5.038 61.86 0 1.404-0.008 2.806-0.023 4.207l0.002-0.213z" fill="rgb(166, 218, 247)"></path><path d="M514.191 970.117c-89.571-0.166-173.097-25.901-243.709-70.293l1.912 1.122c-7.7-4.772-7.24-7.7-2.509-13.967 13.476-17.838 26.563-35.983 39.465-54.272 3.645-5.12 6.042-6.216 12.288-2.683q193.188 110.131 386.447-0.266c4.598-2.632 7.168-3.604 10.742 1.546q20.582 29.266 42.107 57.856c4.372 5.796 1.853 7.782-2.949 10.793-51.178 32.811-111.727 55.918-176.744 65.145l-2.395 0.279c-18.661 3.022-40.172 4.749-62.086 4.749-0.904 0-1.806-0.003-2.708-0.009l0.139 0.001z" fill="rgb(166, 218, 247)"></path><path d="M492.718 101.489c0 9.687-0.717 19.456 0.195 29.061 0.963 10.158-1.792 13.875-12.759 14.705-56.248 4.491-107.667 21.665-152.524 48.638l1.576-0.879c-69.341 40.014-123.169 100.249-154.183 172.585l-0.902 2.365c-3.891 9.093-7.496 10.916-16.804 7.444-20.562-7.66-41.533-14.336-62.556-20.623-7.168-2.15-7.363-4.925-4.731-10.926 68.116-155.894 185.344-249.856 353.004-280.412 12.021-2.25 26.499-3.98 41.216-4.812l0.932-0.042c5.868-0.358 7.854 1.085 7.649 7.117-0.389 11.909-0.113 23.849-0.113 35.779z" fill="rgb(166, 218, 247)"></path><path d="M513.772 626.668c-61.285-1.198-110.507-51.16-110.507-112.62 0-62.209 50.431-112.64 112.64-112.64s112.64 50.431 112.64 112.64c0 0.299-0.001 0.598-0.003 0.896l0-0.046c-0.867 61.918-51.263 111.779-113.305 111.779-0.515 0-1.029-0.003-1.543-0.010l0.078 0.001zM514.529 619.5c57.727-0.735 104.241-47.703 104.241-105.536 0-58.29-47.254-105.544-105.544-105.544-58.079 0-105.2 46.911-105.542 104.909l-0 0.033c0.203 58.662 47.805 106.138 106.495 106.138 0.123 0 0.245-0 0.368-0.001l-0.019 0z" fill="rgb(46, 38, 34)"></path><path d="M514.519 619.469c-57.536-0.98-103.801-47.852-103.801-105.529 0-58.29 47.254-105.544 105.544-105.544s105.544 47.254 105.544 105.544c0 0.225-0.001 0.45-0.002 0.675l0-0.035c-0.492 58.039-47.657 104.899-105.765 104.899-0.534 0-1.067-0.004-1.6-0.012l0.080 0.001z" fill="rgb(254, 243, 189)"></path></svg>