<svg class="jss110" width="100%" height="100%" viewBox="0 0 1024 1024" xmlns="http://www.w3.org/2000/svg" style="display: flex; vertical-align: middle; min-width: auto;"><path d="M512 976v0c-0.009 0-0.021 0-0.029 0-256.244 0-463.969-207.726-463.969-463.969 0-0.011 0-0.023 0-0.029v0.001c0-0.009 0-0.021 0-0.029 0-256.244 207.726-463.969 463.969-463.969 0.011 0 0.023 0 0.029 0h-0.001c0.009 0 0.021 0 0.029 0 256.244 0 463.969 207.726 463.969 463.969 0 0.011 0 0.023 0 0.029v-0.001c0 0.009 0 0.021 0 0.029 0 256.244-207.726 463.969-463.969 463.969-0.011 0-0.023 0-0.029 0h0.001z" fill="none" stroke="rgb(254, 158, 158)" stroke-linejoin="round" stroke-linecap="round" stroke-miterlimit="4" stroke-width="48.2836661240568"></path><path d="M426.063 288.608v0c0.009-47.461 38.482-85.928 85.936-85.937h0.001c47.461 0.009 85.928 38.482 85.937 85.936v0.001c-0.009 47.461-38.482 85.928-85.936 85.937h-0.001c-47.435-0.067-85.87-38.501-85.937-85.929v-0.007z" fill="none" stroke="rgb(254, 158, 158)" stroke-linejoin="round" stroke-linecap="round" stroke-miterlimit="4" stroke-width="48.2836661240568"></path><path d="M217.778 632.272v0c0.009-47.461 38.482-85.928 85.936-85.937h0.001c47.461 0.009 85.928 38.482 85.937 85.936v0.001c-0.067 47.435-38.501 85.87-85.929 85.937h-0.007c-0.005 0-0.011 0-0.016 0-47.456 0-85.927-38.471-85.927-85.927 0-0.005 0-0.012 0-0.017v0.001z" fill="none" stroke="rgb(254, 158, 158)" stroke-linejoin="round" stroke-linecap="round" stroke-miterlimit="4" stroke-width="48.2836661240568"></path><path d="M634.347 632.272v0c0.009-47.461 38.482-85.928 85.936-85.937h0.001c47.461 0.009 85.928 38.482 85.937 85.936v0.001c-0.009 47.461-38.482 85.928-85.936 85.937h-0.001c-0.005 0-0.011 0-0.016 0-47.456 0-85.927-38.471-85.927-85.927 0-0.005 0-0.012 0-0.017v0.001z" fill="none" stroke="rgb(254, 158, 158)" stroke-linejoin="round" stroke-linecap="round" stroke-miterlimit="4" stroke-width="48.2836661240568"></path><path d="M403.222 457.871l-62.38 97.448" fill="none" stroke="rgb(254, 158, 158)" stroke-linejoin="round" stroke-linecap="round" stroke-miterlimit="4" stroke-width="48.2836661240568"></path><path d="M558.397 360.939l62.38 96.922" fill="none" stroke="rgb(254, 158, 158)" stroke-linejoin="round" stroke-linecap="round" stroke-miterlimit="4" stroke-width="48.2836661240568"></path><path d="M634.182 632.129h-122.182" fill="none" stroke="rgb(254, 158, 158)" stroke-linejoin="round" stroke-linecap="round" stroke-miterlimit="4" stroke-width="48.2836661240568"></path></svg>