<svg class="jss110" width="100%" height="100%" viewBox="0 0 1024 1024" xmlns="http://www.w3.org/2000/svg" style="display: flex; vertical-align: middle; min-width: auto;"><path d="M424.96 168.96v20.48h-153.6v-20.48h153.6z" fill="rgb(255, 255, 255)"></path><path d="M184.32 225.28h20.48v153.6h-20.48v-153.6z" fill="rgb(255, 255, 255)"></path><path d="M184.32 481.28h20.48v368.64h-20.48v-368.64z" fill="rgb(255, 255, 255)"></path><path d="M732.16 168.96v20.48h-153.6v-20.48h153.6z" fill="rgb(255, 255, 255)"></path><path d="M701.44 634.88v20.48h-122.88v-20.48h122.88z" fill="rgb(255, 255, 255)"></path><path d="M491.52 225.28h20.48v389.12h-20.48v-389.12z" fill="rgb(255, 255, 255)"></path><path d="M788.48 675.84h20.48v153.6h-20.48v-153.6z" fill="rgb(255, 255, 255)"></path><path d="M788.48 235.52h20.48v153.6h-20.48v-153.6z" fill="rgb(255, 255, 255)"></path><path d="M389.12 112.64h215.040v133.12h-215.040v-133.12z" fill="rgb(75, 95, 171)"></path><path d="M696.32 112.64h215.040v133.12h-215.040v-133.12z" fill="rgb(75, 95, 171)"></path><path d="M81.92 368.64h215.040v133.12h-215.040v-133.12z" fill="rgb(75, 95, 171)"></path><path d="M696.32 337.92h215.040v133.12h-215.040v-133.12z" fill="rgb(246, 168, 28)"></path><path d="M389.12 573.44h215.040v133.12h-215.040v-133.12z" fill="rgb(75, 95, 171)"></path><path d="M696.32 573.44h215.040v133.12h-215.040v-133.12z" fill="rgb(246, 168, 28)"></path><path d="M81.92 778.24h215.040v133.12h-215.040v-133.12z" fill="rgb(75, 95, 171)"></path><path d="M696.32 798.72h215.040v133.12h-215.040v-133.12z" fill="rgb(75, 95, 171)"></path><path d="M81.92 112.64h215.040v133.12h-215.040v-133.12z" fill="rgb(75, 95, 171)"></path></svg>