<svg class="jss110" width="100%" height="100%" viewBox="0 0 1024 1024" xmlns="http://www.w3.org/2000/svg" style="display: flex; vertical-align: middle; min-width: auto;"><path d="M684.954 317.44h267.090c1.186-0.149 2.559-0.234 3.951-0.234 18.504 0 33.505 15.001 33.505 33.505 0 1.392-0.085 2.765-0.25 4.113l0.016-0.162v315.259c0.133 1.16 0.21 2.504 0.21 3.865 0 19.743-16.005 35.748-35.748 35.748-1.362 0-2.706-0.076-4.028-0.224l0.162 0.015h-536.381c-1.186 0.149-2.558 0.234-3.95 0.234-18.504 0-33.505-15.001-33.505-33.505 0-1.389 0.084-2.758 0.249-4.102l-0.016 0.161v-315.269c-0.148-1.183-0.233-2.552-0.233-3.94 0-18.504 15.001-33.505 33.505-33.505 1.392 0 2.764 0.085 4.111 0.25l-0.162-0.016c91.945-2.191 181.709-2.191 271.473-2.191zM684.954 665.539h256.143c6.564 0 8.755-2.191 8.755-8.755v-260.495c0-2.191 2.191-4.383-2.191-6.564-1.728 0.245-3.238 1.036-4.382 2.191l-0.001 0.001c-74.476 59.075-148.859 120.371-223.293 179.476-21.893 17.51-41.595 17.51-63.488 0-74.414-59.105-148.879-120.402-223.314-179.517-2.191-2.191-4.383-4.383-6.564-4.383-2.191 2.191 0 4.383 0 6.564v260.536c0 6.564 2.191 8.755 8.755 8.755 80.998 2.191 164.198 2.191 249.58 2.191zM459.448 361.226l4.383 4.383c72.243 56.924 144.497 116.029 214.548 172.954 4.383 4.383 6.564 2.191 10.947 0 72.243-56.924 142.336-113.848 214.548-172.954 2.191-2.191 4.383-2.191 4.383-6.564-148.869 2.181-297.738 2.181-448.809 2.181z" fill="rgb(246, 181, 0)"></path><path d="M187.976 367.79h122.604c0.186-0.005 0.404-0.008 0.623-0.008 11.703 0 21.434 8.44 23.44 19.565l0.022 0.145c0.035 0.468 0.054 1.014 0.054 1.564 0 12.238-9.758 22.196-21.918 22.52l-0.030 0.001h-247.398c-17.51-2.191-26.307-13.138-24.084-28.426 1.952-8.946 9.806-15.546 19.2-15.546 0.95 0 1.884 0.067 2.797 0.198l-0.105-0.012h124.795z" fill="rgb(246, 181, 0)"></path><path d="M229.571 492.585h81.009c0.456-0.039 0.986-0.061 1.522-0.061 8.46 0 15.638 5.486 18.172 13.094l0.039 0.135c1.411 2.422 2.244 5.332 2.244 8.436 0 5.463-2.58 10.323-6.588 13.428l-0.039 0.029c-3.653 4.043-8.915 6.573-14.767 6.573-0.208 0-0.416-0.003-0.623-0.010l0.030 0.001h-164.188c-0.373 0.024-0.809 0.038-1.248 0.038-11.424 0-20.685-9.261-20.685-20.685 0-0.449 0.014-0.895 0.043-1.337l-0.003 0.060c-0.024-0.372-0.038-0.808-0.038-1.246 0-11.424 9.261-20.685 20.685-20.685 0.438 0 0.873 0.014 1.305 0.040l-0.059-0.003c28.457 2.191 56.955 2.191 83.19 2.191z" fill="rgb(246, 181, 0)"></path><path d="M271.165 658.975h-39.404c-0.468 0.035-1.014 0.054-1.564 0.054-12.238 0-22.196-9.758-22.52-21.918l-0.001-0.030c-0.008-0.215-0.012-0.467-0.012-0.72 0-11.792 9.559-21.35 21.35-21.35 0.968 0 1.921 0.064 2.856 0.189l-0.109-0.012h78.848c0.456-0.033 0.987-0.052 1.523-0.052 12.237 0 22.195 9.756 22.52 21.915l0.001 0.030c0.008 0.215 0.012 0.467 0.012 0.72 0 11.792-9.559 21.35-21.35 21.35-0.968 0-1.921-0.064-2.856-0.189l0.109 0.012z" fill="rgb(246, 181, 0)"></path></svg>