<svg class="jss110" width="100%" height="100%" viewBox="0 0 1024 1024" xmlns="http://www.w3.org/2000/svg" style="display: flex; vertical-align: middle; min-width: auto;"><path d="M922.286 602.112h-135.168v-60.078c0-24.884-20.172-45.056-45.056-45.056v-0h-225.28v-75.090h150.18c24.884-0 45.056-20.172 45.056-45.056v0-270.336c0-24.884-20.172-45.056-45.056-45.056v0h-330.404c-24.884 0-45.056 20.172-45.056 45.056h-0v270.336c0 24.884 20.172 45.056 45.056 45.056h150.18v75.090h-195.236c-24.884 0-45.056 20.172-45.056 45.056v0 60.078h-150.19c-24.884 0-45.056 20.172-45.056 45.056h0v270.336c-0 24.884 20.172 45.056 45.056 45.056v0h330.414c24.884 0 45.056-20.172 45.056-45.056v0-270.336c0-24.884-20.172-45.056-45.056-45.056v0h-150.19v-60.078c0-8.296 6.726-15.022 15.022-15.022v0h450.56c8.296 0 15.022 6.726 15.022 15.022v0 60.078h-165.212c-24.884 0-45.056 20.172-45.056 45.056v0 270.336c0 24.884 20.172 45.056 45.056 45.056v0h330.414c24.884 0 45.056-20.172 45.056-45.056v0-270.336c0-24.884-20.172-45.056-45.056-45.056h-0zM336.558 91.474h330.404c8.296 0 15.022 6.726 15.022 15.022v0 15.022h-360.448v-15.022c0-8.296 6.726-15.022 15.022-15.022v0zM321.536 376.832v-225.28h360.448v225.28c0 8.296-6.726 15.022-15.022 15.022v0h-330.404c-8.296 0-15.022-6.726-15.022-15.022v0zM426.67 932.526h-330.414c-8.296 0-15.022-6.726-15.022-15.022v-225.28h360.448v225.28c0 8.293-6.72 15.016-15.011 15.022l-0.001 0zM441.682 647.168v15.022h-360.448v-15.022c0-8.296 6.726-15.022 15.022-15.022v0h330.414c8.292 0.006 15.012 6.729 15.012 15.022 0 0-0 0-0 0l0-0zM591.872 632.146h330.414c8.296 0 15.022 6.726 15.022 15.022h0v15.022h-360.448v-15.022c-0-8.293 6.72-15.016 15.011-15.022l0.001-0zM922.286 932.516h-330.414c-8.293 0-15.016-6.72-15.022-15.011l-0-0.001v-225.28h360.448v225.28c0 8.293-6.72 15.016-15.011 15.022l-0.001 0z" fill="rgb(145, 222, 0)"></path><path d="M707.625 756.695c-2.718-2.716-6.472-4.397-10.619-4.397s-7.901 1.68-10.619 4.397l-45.056 45.056c-2.716 2.718-4.397 6.472-4.397 10.619s1.68 7.901 4.397 10.619l45.056 45.056c2.689 2.561 6.337 4.137 10.353 4.137 8.296 0 15.022-6.726 15.022-15.022 0-4.016-1.576-7.664-4.143-10.359l0.006 0.006-34.437-34.437 34.437-34.437c2.716-2.718 4.397-6.472 4.397-10.619s-1.68-7.901-4.397-10.619l0 0z" fill="rgb(145, 222, 0)"></path><path d="M827.771 756.705c-2.689-2.561-6.337-4.137-10.353-4.137-8.296 0-15.022 6.726-15.022 15.022 0 4.016 1.576 7.664 4.143 10.359l-0.006-0.006 34.437 34.437-34.437 34.437c-2.714 2.718-4.392 6.47-4.392 10.615 0 8.296 6.726 15.022 15.022 15.022 3.961 0 7.564-1.533 10.248-4.038l-0.009 0.008 45.425-45.425c2.716-2.718 4.397-6.472 4.397-10.619s-1.68-7.901-4.397-10.619l0 0z" fill="rgb(145, 222, 0)"></path><path d="M775.741 737.72c-1.095-0.285-2.352-0.449-3.647-0.449-6.998 0-12.878 4.785-14.547 11.261l-0.023 0.104-30.034 120.146c-0.285 1.095-0.449 2.352-0.449 3.647 0 6.998 4.785 12.878 11.261 14.547l0.104 0.023c1.081 0.286 2.322 0.451 3.602 0.451 0.015 0 0.030-0 0.046-0l-0.002 0c6.99-0.009 12.861-4.792 14.528-11.262l0.023-0.104 30.034-120.146c0.286-1.096 0.451-2.355 0.451-3.652 0-6.991-4.775-12.866-11.242-14.542l-0.104-0.023z" fill="rgb(145, 222, 0)"></path><path d="M452.301 216.023c-2.718-2.716-6.472-4.397-10.619-4.397s-7.901 1.68-10.619 4.397l-45.056 45.056c-2.716 2.718-4.397 6.472-4.397 10.619s1.68 7.901 4.397 10.619l45.056 45.056c2.689 2.561 6.337 4.137 10.353 4.137 8.296 0 15.022-6.726 15.022-15.022 0-4.016-1.576-7.664-4.143-10.359l0.006 0.006-34.437-34.437 34.437-34.437c2.716-2.718 4.397-6.472 4.397-10.619s-1.68-7.901-4.397-10.619l0 0z" fill="rgb(145, 222, 0)"></path><path d="M572.447 216.033c-2.689-2.561-6.337-4.137-10.353-4.137-8.296 0-15.022 6.726-15.022 15.022 0 4.016 1.576 7.664 4.143 10.359l-0.006-0.006 34.437 34.437-34.437 34.437c-2.714 2.718-4.392 6.47-4.392 10.615 0 8.296 6.726 15.022 15.022 15.022 3.961 0 7.564-1.533 10.248-4.038l-0.009 0.008 45.425-45.425c2.716-2.718 4.397-6.472 4.397-10.619s-1.68-7.901-4.397-10.619l0 0z" fill="rgb(145, 222, 0)"></path><path d="M520.428 197.059c-1.095-0.285-2.352-0.449-3.647-0.449-6.998 0-12.878 4.785-14.547 11.261l-0.023 0.104-30.034 120.146c-0.285 1.095-0.449 2.352-0.449 3.647 0 6.998 4.785 12.878 11.261 14.547l0.104 0.023c1.083 0.286 2.326 0.451 3.607 0.451 0.013 0 0.027-0 0.040-0l-0.002 0c6.99-0.009 12.861-4.792 14.528-11.262l0.023-0.104 30.034-120.146c0.286-1.096 0.45-2.353 0.45-3.649 0-6.994-4.78-12.872-11.251-14.545l-0.104-0.023z" fill="rgb(145, 222, 0)"></path><path d="M211.999 756.695c-2.718-2.716-6.472-4.397-10.619-4.397s-7.901 1.68-10.619 4.397l-45.056 45.056c-2.716 2.718-4.397 6.472-4.397 10.619s1.68 7.901 4.397 10.619l45.056 45.056c2.689 2.561 6.337 4.137 10.353 4.137 8.296 0 15.022-6.726 15.022-15.022 0-4.016-1.576-7.664-4.143-10.359l0.006 0.006-34.437-34.437 34.437-34.437c2.716-2.718 4.397-6.472 4.397-10.619s-1.68-7.901-4.397-10.619l0 0z" fill="rgb(145, 222, 0)"></path><path d="M332.145 756.705c-2.689-2.561-6.337-4.137-10.353-4.137-8.296 0-15.022 6.726-15.022 15.022 0 4.016 1.576 7.664 4.143 10.359l-0.006-0.006 34.437 34.437-34.437 34.437c-2.946 2.75-4.783 6.656-4.783 10.992 0 8.296 6.726 15.022 15.022 15.022 4.152 0 7.911-1.684 10.63-4.407l0-0 45.425-45.425c2.716-2.718 4.397-6.472 4.397-10.619s-1.68-7.901-4.397-10.619l0 0z" fill="rgb(145, 222, 0)"></path><path d="M280.136 737.72c-1.095-0.285-2.352-0.449-3.647-0.449-6.998 0-12.878 4.785-14.547 11.261l-0.023 0.104-30.034 120.146c-0.285 1.095-0.449 2.352-0.449 3.647 0 6.998 4.785 12.878 11.261 14.547l0.104 0.023c1.082 0.286 2.323 0.451 3.603 0.451 0.015 0 0.030-0 0.044-0l-0.002 0c6.99-0.009 12.861-4.792 14.528-11.262l0.023-0.104 30.034-120.146c0.286-1.096 0.45-2.353 0.45-3.649 0-6.994-4.78-12.872-11.251-14.545l-0.104-0.023z" fill="rgb(145, 222, 0)"></path></svg>