<svg class="jss110" width="100%" height="100%" viewBox="0 0 1024 1024" xmlns="http://www.w3.org/2000/svg" style="display: flex; vertical-align: middle; min-width: auto;"><path d="M1024 525.522c-0.061-282.723-229.268-511.891-512-511.891-282.77 0-512 229.23-512 512 0 223.111 142.709 412.892 341.825 483.039l3.586 1.101c14.344-7.474 24.413-21.44 26.345-37.894l0.022-0.231c0-28.164-0.6-100.59-0.6-100.59-15.546 2.411-33.477 3.789-51.731 3.789-0.774 0-1.547-0.003-2.32-0.008l0.119 0.001c-2.162 0.144-4.686 0.226-7.23 0.226-50.931 0-94.19-32.846-109.752-78.509l-0.241-0.816c-11.504-28.875-31.511-52.329-56.898-67.844l-0.608-0.346c-13.245-8.534-16.283-18.597-0.972-21.448 70.731-13.245 88.853 79.782 136.069 94.618 11.815 3.813 25.407 6.012 39.514 6.012 21.547 0 41.896-5.129 59.892-14.233l-0.759 0.348c4.579-27.243 19.405-50.378 40.3-65.739l0.283-0.199c-120.159-11.489-191.405-52.981-228.332-119.704l-3.906-7.501-9.278-21.201-2.748-7.604c-10.639-32.413-16.775-69.718-16.775-108.457 0-2.639 0.028-5.272 0.085-7.898l-0.007 0.391c0-76.909 24.093-105.921 56.453-146.917-6.145-18.617-9.689-40.044-9.689-62.301 0-30.93 6.844-60.261 19.102-86.561l-0.529 1.263s52.010-10.725 150.327 59.284c53.271-22.729 195.353-24.59 262.592-5.042 41.327-27.131 116.708-65.607 147.145-54.821 8.266 13.204 26.015 51.659 10.786 136.193 10.331 18.597 64.057 58.023 64.263 169.688-0.118 37.476-4.911 73.781-13.827 108.429l0.665-3.045-4.443 15.043s-2.542 7.088-5.31 13.845l-3.245 7.46c-35.644 77.86-108.773 106.933-226.926 119.022 38.289 23.97 49.262 54.055 49.262 135.428s-1.095 92.304-0.847 111.025c2.366 16.089 11.858 29.566 25.11 37.31l0.244 0.132c203.534-70.862 346.981-261.092 346.981-484.826 0-0.008 0-0.015 0-0.022v0z" fill="rgb(255, 255, 255)"></path></svg>