<svg class="jss110" width="100%" height="100%" viewBox="0 0 1024 1024" xmlns="http://www.w3.org/2000/svg" style="display: flex; vertical-align: middle; min-width: auto;"><path d="M90.255 647.066c-2.94-4.839-4.754-10.652-4.945-16.874l-0.001-0.053c0.106-0.375 0.167-0.806 0.167-1.252 0-1.638-0.827-3.083-2.086-3.94l-0.017-0.011-0.799-5.509c0.122-0.403 0.192-0.865 0.192-1.344 0-1.624-0.806-3.060-2.040-3.929l-0.015-0.010-0.737-5.775-1.475-4.915-1.229-8.571-1.024-4.741c-1.336-3.001-2.113-6.502-2.113-10.185 0-1.258 0.091-2.495 0.266-3.705l-0.016 0.138-0.881-5.12c-1.289-3.555-2.034-7.658-2.034-11.935 0-1.674 0.114-3.321 0.335-4.934l-0.021 0.187c0.267-1.084 0.42-2.329 0.42-3.609 0-2.439-0.555-4.747-1.546-6.807l0.041 0.094c-1.186-9.017-1.863-19.444-1.863-30.029s0.677-21.012 1.99-31.24l-0.127 1.211c0.922-1.929 1.46-4.192 1.46-6.582 0-1.298-0.159-2.56-0.459-3.765l0.023 0.107c-0.199-1.426-0.313-3.073-0.313-4.746 0-4.292 0.749-8.409 2.123-12.227l-0.079 0.252 0.87-5.12c-0.162-1.081-0.255-2.328-0.255-3.596 0-3.692 0.783-7.201 2.193-10.37l-0.065 0.163 1.024-4.69 1.26-8.622 1.444-4.854 0.748-5.816c1.242-0.871 2.044-2.297 2.044-3.91 0-0.475-0.070-0.934-0.199-1.367l0.009 0.034 0.799-5.55c1.27-0.855 2.093-2.287 2.093-3.911 0-0.43-0.058-0.846-0.166-1.242l0.008 0.033c0.231-5.028 1.472-9.714 3.523-13.933l-0.093 0.211c1.317-0.826 2.179-2.27 2.179-3.916 0-0.387-0.048-0.764-0.138-1.123l0.007 0.032c2.099-6.717 2.048-10.967-6.277-14.838-29.534-12.913-51.748-37.883-60.667-68.516l-0.189-0.758c-0.594-2.048-0.297-4.588-3.154-5.263v-40.479c4.096-9.155 7.578-18.657 12.401-27.423 31.908-57.958 111.616-76.892 170.865-40.243 2.142 1.901 4.978 3.062 8.085 3.062 3.931 0 7.428-1.858 9.66-4.744l0.021-0.028c43.301-38.584 95.291-68.444 152.588-86.251l2.947-0.789c0.329 0.083 0.706 0.131 1.095 0.131 1.65 0 3.099-0.862 3.922-2.16l0.011-0.019c4.002-1.928 8.675-3.156 13.607-3.396l0.084-0.003c0.374 0.106 0.804 0.167 1.247 0.167 1.636 0 3.079-0.827 3.934-2.085l0.011-0.017 5.519-0.788c0.402 0.121 0.864 0.191 1.342 0.191 1.62 0 3.052-0.802 3.922-2.030l0.010-0.015 5.786-0.748 4.895-1.485 10.588-1.505 2.765-0.717c2.985-1.333 6.468-2.11 10.133-2.11 1.27 0 2.518 0.093 3.738 0.273l-0.138-0.017 5.12-0.87c3.072-3.174 8.98 0.86 11.131-4.506h32.379c2.693 3.512 5.396 3.523 8.1 0h8.1c2.128 1.943 4.972 3.134 8.095 3.134s5.967-1.19 8.104-3.142l-0.009 0.008h21.586c4.321 5.857 11.674 0.604 16.527 4.506l5.12 0.87c1.082-0.163 2.33-0.257 3.601-0.257 3.664 0 7.147 0.777 10.293 2.174l-0.162-0.064 2.755 0.717 10.588 1.505 4.905 1.485 5.786 0.737c0.879 1.248 2.315 2.053 3.938 2.053 0.476 0 0.936-0.069 1.37-0.198l-0.034 0.009 5.519 0.788c0.865 1.275 2.308 2.102 3.944 2.102 0.444 0 0.873-0.061 1.281-0.175l-0.033 0.008c5.015 0.234 9.69 1.463 13.906 3.493l-0.215-0.093c0.834 1.316 2.282 2.177 3.932 2.177 0.385 0 0.76-0.047 1.118-0.136l-0.032 0.007 11.182 3.328c0.805 1.338 2.25 2.22 3.9 2.22 0.353 0 0.696-0.040 1.025-0.116l-0.031 0.006c53.453 18.677 99.492 46.111 138.787 80.979l-0.424-0.369c7.803 6.697 12.462 8.643 22.374 2.396 18.596-11.731 41.22-18.691 65.47-18.691 35.732 0 67.935 15.113 90.564 39.296l0.064 0.070c11.642 14.061 20.684 30.747 26.105 48.991l0.252 0.99v37.786c-6.742 19.183-16.511 35.721-28.888 49.928l0.155-0.182c-10.277 10.643-22.553 19.278-36.234 25.312l-0.733 0.288c-7.291 2.939-10.506 6.369-7.281 13.998-0.086 0.334-0.135 0.717-0.135 1.112 0 1.655 0.863 3.109 2.164 3.935l0.019 0.011c1.952 3.993 3.186 8.662 3.407 13.595l0.003 0.076c-0.108 0.379-0.171 0.815-0.171 1.265 0 1.641 0.828 3.088 2.089 3.947l0.017 0.011q0.379 2.796 0.758 5.591c-0.12 0.398-0.189 0.855-0.189 1.328 0 1.572 0.762 2.967 1.937 3.834l0.013 0.009 0.85 5.868 1.495 4.833q0.614 4.28 1.239 8.561l1.024 4.741c1.338 2.995 2.117 6.49 2.117 10.167 0 1.265-0.092 2.508-0.27 3.724l0.017-0.138 0.881 5.12c1.294 3.559 2.042 7.667 2.042 11.95 0 1.665-0.113 3.303-0.332 4.908l0.021-0.187c-0.27 1.090-0.424 2.342-0.424 3.629 0 2.435 0.553 4.74 1.541 6.797l-0.041-0.094c1.187 9.017 1.865 19.444 1.865 30.029s-0.678 21.012-1.992 31.239l0.127-1.21c-0.921 1.929-1.459 4.193-1.459 6.583 0 1.298 0.159 2.559 0.458 3.764l-0.022-0.107c0.198 1.419 0.311 3.058 0.311 4.724 0 4.297-0.752 8.418-2.131 12.239l0.079-0.251-0.87 5.12c0.161 1.076 0.253 2.317 0.253 3.58 0 3.695-0.787 7.206-2.201 10.375l0.065-0.162-0.973 4.7-1.26 8.612-1.464 4.782-0.86 5.919c-1.181 0.864-1.939 2.245-1.939 3.804 0 0.469 0.069 0.922 0.197 1.35l-0.009-0.033-0.758 5.632c-1.276 0.858-2.104 2.297-2.104 3.929 0 0.446 0.062 0.877 0.177 1.285l-0.008-0.033c-0.23 5.018-1.46 9.697-3.493 13.915l0.093-0.214c-1.32 0.823-2.185 2.268-2.185 3.914 0 0.396 0.050 0.78 0.144 1.146l-0.007-0.032c-42.298 131.295-141.185 233.655-267.17 279.826l-3.043 0.975c-0.3-0.071-0.645-0.112-0.999-0.112-1.649 0-3.093 0.882-3.884 2.201l-0.011 0.021-11.182 3.328c-0.328-0.083-0.704-0.13-1.091-0.13-1.648 0-3.096 0.862-3.916 2.159l-0.011 0.019c-3.994 1.942-8.663 3.171-13.593 3.397l-0.078 0.003c-0.376-0.106-0.807-0.167-1.253-0.167-1.648 0-3.101 0.836-3.959 2.106l-0.011 0.017-5.499 0.778c-0.403-0.122-0.865-0.192-1.344-0.192-1.624 0-3.060 0.806-3.929 2.040l-0.010 0.015-5.775 0.737-4.915 1.505-8.55 1.208c-2.796-0.276-5.612-0.635-7.731 1.884l-10.752 1.024-5.181 0.891c-4.874 3.84-12.186-1.372-16.517 4.454h-24.289c-1.651-1.883-4.062-3.066-6.748-3.066s-5.097 1.182-6.739 3.055l-0.009 0.010h-48.579c-2.181-5.335-8.090-1.352-11.162-4.475l-5.12-0.881-10.803-1.024c-2.048-2.529-4.905-2.14-7.68-1.874l-8.591-1.219-4.864-1.485-5.827-0.748c-0.871-1.242-2.297-2.044-3.91-2.044-0.475 0-0.934 0.070-1.367 0.199l0.034-0.009-5.54-0.788c-0.856-1.277-2.294-2.106-3.925-2.106-0.447 0-0.88 0.062-1.29 0.179l0.033-0.008c-5.020-0.244-9.697-1.475-13.918-3.504l0.217 0.094c-0.822-1.317-2.263-2.18-3.905-2.18-0.388 0-0.764 0.048-1.124 0.139l0.032-0.007c-66.277-20.47-123.148-54.771-169.628-99.746l0.115 0.11c-51.541-48.459-91.195-108.967-114.51-177.056l-0.915-3.076c-0.515-1.749-0.997-3.936-1.343-6.167l-0.039-0.305c0.059-0.159 0.093-0.343 0.093-0.534 0-0.512-0.244-0.967-0.622-1.255l-0.004-0.003zM160.799 241.736c12.216-12.974 24.023-26.378 36.864-38.748 6.758-6.533 5.192-8.97-2.048-13.251-16.487-9.629-36.297-15.313-57.434-15.313-27.453 0-52.666 9.589-72.473 25.601l0.218-0.171c-20.957 16.702-34.27 42.225-34.27 70.858 0 38.168 23.657 70.811 57.108 84.065l0.612 0.214c3.758 1.587 7.526 5.325 10.24-2.222 4.628-12.984 10.373-25.6 15.647-38.328 10.568-16.814 21.504-33.454 31.57-50.534 4.454-7.537 11.899-13.23 13.947-22.17zM908.022 314.44c5.437 13.199 11.080 26.317 16.21 39.629 1.976 5.12 4.956 3.871 8.54 2.765 36.803-11.387 66.99-58.143 61.307-96.338-4.756-36.184-29.291-65.636-62.231-77.412l-0.663-0.207c-12.833-5.591-27.784-8.844-43.494-8.844-23.109 0-44.575 7.039-62.37 19.089l0.392-0.25c-3.441 2.161-5.796 3.912-1.853 8.008 12.995 13.507 25.764 27.228 38.625 40.868zM943.452 514.417c0-0.045 0-0.099 0-0.152 0-238.488-193.333-431.821-431.821-431.821s-431.821 193.333-431.821 431.821c0 237.368 191.521 430.004 428.464 431.808l0.172 0.001c0.682 0.004 1.488 0.006 2.295 0.006 238.606 0 432.103-193.13 432.7-431.595l0-0.057z" fill="rgb(16, 20, 21)"></path><path d="M530.524 71.68c-2.128 1.943-4.972 3.134-8.095 3.134s-5.967-1.19-8.104-3.142l0.009 0.008z" fill="rgb(33, 34, 35)"></path><path d="M514.335 956.836c1.651-1.883 4.062-3.066 6.748-3.066s5.097 1.182 6.739 3.055l0.009 0.010z" fill="rgb(33, 34, 35)"></path><path d="M506.245 71.68c-2.693 3.523-5.396 3.512-8.1 0z" fill="rgb(33, 34, 35)"></path><path d="M952.535 484.25c-0.947-1.963-1.5-4.268-1.5-6.703 0-1.288 0.155-2.539 0.447-3.737l-0.022 0.108c0.986 1.916 1.564 4.182 1.564 6.582 0 1.333-0.178 2.625-0.512 3.853l0.024-0.103z" fill="rgb(33, 34, 35)"></path><path d="M951.45 554.588c-0.277-1.098-0.435-2.359-0.435-3.657 0-2.39 0.538-4.653 1.5-6.677l-0.040 0.094c0.318 1.132 0.5 2.431 0.5 3.773 0 2.357-0.563 4.582-1.562 6.549l0.038-0.082z" fill="rgb(33, 34, 35)"></path><path d="M584.561 950.497c2.12-2.519 4.936-2.15 7.731-1.884z" fill="rgb(33, 34, 35)"></path><path d="M934.554 384.686c-1.32-0.838-2.183-2.291-2.183-3.947 0-0.395 0.049-0.778 0.142-1.144l-0.007 0.032z" fill="rgb(33, 34, 35)"></path><path d="M939.93 403.61c-1.278-0.869-2.106-2.317-2.106-3.958 0-0.45 0.062-0.885 0.179-1.298l-0.008 0.034z" fill="rgb(33, 34, 35)"></path><path d="M942.418 414.331c-1.188-0.876-1.95-2.271-1.95-3.843 0-0.473 0.069-0.93 0.198-1.362l-0.009 0.034z" fill="rgb(33, 34, 35)"></path><path d="M944.763 425.042l-1.495-4.833z" fill="rgb(33, 34, 35)"></path><path d="M946.985 438.333l-1.024-4.741z" fill="rgb(33, 34, 35)"></path><path d="M949.729 457.247l-0.881-5.12c0.804 0.827 1.299 1.957 1.299 3.203 0 0.695-0.154 1.354-0.431 1.945l0.012-0.028z" fill="rgb(33, 34, 35)"></path><path d="M948.849 576.41l0.87-5.12c0.275 0.567 0.436 1.234 0.436 1.939 0 1.24-0.499 2.364-1.307 3.182l0-0z" fill="rgb(33, 34, 35)"></path><path d="M946.002 594.903l0.973-4.7z" fill="rgb(33, 34, 35)"></path><path d="M943.299 608.297l1.464-4.782z" fill="rgb(33, 34, 35)"></path><path d="M940.646 619.346c-0.119-0.394-0.188-0.847-0.188-1.316 0-1.558 0.758-2.939 1.926-3.794l0.013-0.009z" fill="rgb(33, 34, 35)"></path><path d="M932.547 648.878c-0.087-0.334-0.137-0.718-0.137-1.114 0-1.646 0.865-3.090 2.166-3.903l0.019-0.011z" fill="rgb(33, 34, 35)"></path><path d="M657.398 931.779c0.802-1.339 2.246-2.221 3.895-2.221 0.354 0 0.699 0.041 1.030 0.118l-0.031-0.006z" fill="rgb(33, 34, 35)"></path><path d="M641.198 937.185c0.831-1.317 2.278-2.178 3.927-2.178 0.387 0 0.763 0.048 1.123 0.137l-0.032-0.007z" fill="rgb(33, 34, 35)"></path><path d="M937.964 630.159c-0.107-0.375-0.169-0.807-0.169-1.252 0-1.645 0.842-3.094 2.118-3.939l0.018-0.011z" fill="rgb(33, 34, 35)"></path><path d="M622.316 942.541c0.868-1.288 2.321-2.123 3.969-2.123 0.446 0 0.877 0.061 1.287 0.175l-0.034-0.008z" fill="rgb(33, 34, 35)"></path><path d="M611.533 945.172c0.879-1.249 2.315-2.056 3.939-2.056 0.479 0 0.942 0.070 1.378 0.201l-0.034-0.009z" fill="rgb(33, 34, 35)"></path><path d="M600.842 947.415l4.915-1.505z" fill="rgb(33, 34, 35)"></path><path d="M568.627 952.371l5.181-0.891c-0.83 0.819-1.971 1.326-3.23 1.326-0.709 0-1.38-0.16-1.979-0.447l0.028 0.012z" fill="rgb(33, 34, 35)"></path><path d="M71.823 473.928c0.277 1.099 0.436 2.36 0.436 3.658 0 2.389-0.538 4.653-1.5 6.676l0.040-0.094c-0.306-1.123-0.482-2.412-0.482-3.743 0-2.365 0.556-4.601 1.545-6.583l-0.039 0.086z" fill="rgb(33, 34, 35)"></path><path d="M70.738 544.256c0.95 1.965 1.505 4.274 1.505 6.713 0 1.28-0.153 2.525-0.442 3.717l0.022-0.107c-0.985-1.923-1.563-4.195-1.563-6.602 0-1.322 0.174-2.604 0.501-3.823l-0.023 0.103z" fill="rgb(33, 34, 35)"></path><path d="M430.991 948.613c2.775-0.266 5.581-0.655 7.68 1.874z" fill="rgb(33, 34, 35)"></path><path d="M85.32 398.377c0.1 0.363 0.158 0.779 0.158 1.209 0 1.624-0.824 3.056-2.077 3.9l-0.017 0.011z" fill="rgb(33, 34, 35)"></path><path d="M82.586 409.078c0.121 0.399 0.19 0.858 0.19 1.333 0 1.613-0.802 3.038-2.029 3.9l-0.015 0.010z" fill="rgb(33, 34, 35)"></path><path d="M79.985 420.137l-1.444 4.854z" fill="rgb(33, 34, 35)"></path><path d="M77.271 433.613l-1.024 4.69z" fill="rgb(33, 34, 35)"></path><path d="M74.424 452.116l-0.87 5.12c-0.282-0.57-0.447-1.24-0.447-1.949 0-1.239 0.504-2.36 1.317-3.171l0-0z" fill="rgb(33, 34, 35)"></path><path d="M73.544 571.259l0.881 5.12c-0.804-0.827-1.299-1.957-1.299-3.203 0-0.695 0.154-1.354 0.431-1.945l-0.012 0.028z" fill="rgb(33, 34, 35)"></path><path d="M76.288 590.162l1.024 4.741z" fill="rgb(33, 34, 35)"></path><path d="M78.51 603.464l1.475 4.915z" fill="rgb(33, 34, 35)"></path><path d="M80.681 614.154c1.249 0.879 2.056 2.315 2.056 3.939 0 0.479-0.070 0.942-0.201 1.378l0.009-0.034z" fill="rgb(33, 34, 35)"></path><path d="M83.374 624.937c1.276 0.867 2.103 2.312 2.103 3.95 0 0.445-0.061 0.876-0.175 1.285l0.008-0.034z" fill="rgb(33, 34, 35)"></path><path d="M377.037 935.107c0.328-0.084 0.704-0.132 1.092-0.132 1.642 0 3.083 0.863 3.894 2.161l0.011 0.019z" fill="rgb(33, 34, 35)"></path><path d="M406.456 943.309c0.399-0.121 0.858-0.19 1.333-0.19 1.613 0 3.038 0.802 3.9 2.029l0.010 0.015z" fill="rgb(33, 34, 35)"></path><path d="M417.526 945.91l4.864 1.485z" fill="rgb(33, 34, 35)"></path><path d="M90.778 379.648c0.083 0.328 0.131 0.704 0.131 1.091 0 1.645-0.862 3.089-2.16 3.905l-0.019 0.011z" fill="rgb(33, 34, 35)"></path><path d="M449.464 951.45l5.12 0.881c-0.566 0.275-1.231 0.435-1.934 0.435-1.244 0-2.37-0.503-3.186-1.316l0 0z" fill="rgb(33, 34, 35)"></path><path d="M395.735 940.585c0.377-0.108 0.809-0.171 1.256-0.171 1.631 0 3.069 0.829 3.914 2.089l0.011 0.017z" fill="rgb(33, 34, 35)"></path><path d="M90.266 647.055c0.368 0.291 0.602 0.738 0.602 1.239 0 0.199-0.037 0.389-0.104 0.564l0.004-0.011-0.829-0.768z" fill="rgb(33, 34, 35)"></path><path d="M943.452 514.417c-0.117 238.4-193.405 431.616-431.821 431.616-238.488 0-431.821-193.333-431.821-431.821 0-238.431 193.24-431.728 431.648-431.821l0.009-0c238.46 0.332 431.676 193.563 431.985 431.996l0 0.029zM519.281 591.391c-1.807-0.101-3.92-0.159-6.048-0.159-14.081 0-27.571 2.532-40.039 7.166l0.795-0.259c-18.575 7.834-36.096 17.562-35.021 42.076 0.307 6.902-5.12 6.513-9.083 7.557-19.839 5.274-36.34 17.174-47.384 33.137l-0.181 0.276c-7.467 9.835-11.962 22.283-11.962 35.78 0 9.328 2.147 18.154 5.973 26.012l-0.155-0.353c9.288 20.654 27.648 26.86 48.957 26.225 2.693-0.082 5.396 0.102 8.090 0 5.96-0.184 7.629 2.806 7.219 8.417-1.167 16.108-1.628 32.287-3.021 48.374-2.98 34.386 18.575 56.166 52.716 52.89 8.982-0.673 17.122-3.796 23.893-8.695l-0.136 0.094c2.074-1.985 4.892-3.207 7.996-3.207 3.046 0 5.817 1.177 7.883 3.101l-0.007-0.006c8.398 6.017 18.881 9.621 30.205 9.621 9.566 0 18.531-2.572 26.241-7.062l-0.249 0.134c17.48-10.056 20.214-27.525 19.722-45.66-0.451-16.599-1.188-33.208-2.621-49.746-0.768-8.858 2.12-11.581 10.885-11.766 0.749 0.046 1.625 0.073 2.507 0.073 19.521 0 36.027-12.911 41.445-30.66l0.081-0.307c11.96-35.123-7.721-72.376-46.674-85.719-11.448-3.922-20.572-6.851-19.22-21.504 0.41-4.434-3.799-7.885-6.851-11.264-17.459-19.139-40.663-23.112-65.956-24.566zM306.237 282.143c-98.267 0.181-177.858 79.884-177.858 178.176 0 98.404 79.772 178.176 178.176 178.176s178.176-79.772 178.176-178.176c0-0.108-0-0.216-0-0.324l0 0.017c-0.134-98.303-79.855-177.941-178.176-177.941-0.112 0-0.223 0-0.335 0l0.017-0zM726.712 638.423c0.243 0.001 0.53 0.002 0.817 0.002 98.404 0 178.176-79.772 178.176-178.176s-79.772-178.176-178.176-178.176c-98.115 0-177.708 79.305-178.174 177.311l-0 0.044c-0.001 0.262-0.002 0.572-0.002 0.882 0 98.104 79.314 177.684 177.318 178.113l0.041 0z" fill="rgb(100, 190, 209)"></path><path d="M862.474 241.736c-12.861-13.64-25.6-27.361-38.625-40.868-3.942-4.096-1.587-5.837 1.853-8.008 17.402-11.801 38.867-18.84 61.976-18.84 15.711 0 30.662 3.254 44.216 9.124l-0.721-0.278c33.603 11.983 58.138 41.435 62.842 77.137l0.052 0.482c5.673 38.195-24.504 84.992-61.307 96.338-3.584 1.106-6.564 2.365-8.54-2.765-5.12-13.312-10.772-26.429-16.21-39.629 22.948-16.579 28.672-40.909 14.592-61.778-7.602-11.575-20.524-19.113-35.207-19.113-9.381 0-18.044 3.077-25.034 8.277l0.112-0.080z" fill="rgb(99, 189, 208)"></path><path d="M115.251 314.44c-5.274 12.759-11.018 25.344-15.647 38.328-2.693 7.537-6.451 3.809-10.24 2.222-34.063-13.468-57.72-46.11-57.72-84.278 0-28.633 13.313-54.156 34.087-70.717l0.183-0.141c19.589-15.841 44.802-25.43 72.255-25.43 21.138 0 40.947 5.685 57.984 15.609l-0.549-0.296c7.168 4.28 8.765 6.717 2.048 13.251-12.8 12.37-24.576 25.774-36.864 38.748-6.877-5.117-15.537-8.192-24.915-8.192-14.694 0-27.625 7.549-35.126 18.98l-0.098 0.159c-14.080 20.859-8.325 45.24 14.602 61.757z" fill="rgb(99, 189, 208)"></path><path d="M862.474 241.736c6.878-5.119 15.539-8.195 24.92-8.195 14.691 0 27.62 7.546 35.122 18.973l0.098 0.159c14.1 20.869 8.356 45.189-14.592 61.778z" fill="rgb(5, 10, 11)"></path><path d="M115.261 314.429c-22.927-16.517-28.672-40.888-14.592-61.757 7.6-11.59 20.53-19.139 35.224-19.139 9.378 0 18.039 3.075 25.027 8.272l-0.112-0.080c-2.109 8.97-9.513 14.633-13.978 22.159-10.117 17.091-21.002 33.731-31.57 50.545z" fill="rgb(5, 10, 11)"></path><path d="M449.505 77.056c0.824-0.802 1.95-1.296 3.192-1.296 0.7 0 1.363 0.157 1.956 0.438l-0.028-0.012z" fill="rgb(33, 34, 35)"></path><path d="M568.648 76.186c0.565-0.269 1.228-0.426 1.928-0.426 1.242 0 2.368 0.495 3.193 1.297l-0.001-0.001z" fill="rgb(33, 34, 35)"></path><path d="M417.536 82.606l4.895-1.485z" fill="rgb(33, 34, 35)"></path><path d="M406.467 85.197l5.274-1.853c-0.88 1.243-2.312 2.045-3.932 2.045-0.478 0-0.94-0.070-1.376-0.2l0.034 0.009z" fill="rgb(33, 34, 35)"></path><path d="M611.533 83.343l5.274 1.864c-0.4 0.12-0.86 0.19-1.336 0.19-1.623 0-3.058-0.805-3.928-2.038l-0.010-0.015z" fill="rgb(33, 34, 35)"></path><path d="M395.756 87.931l5.192-1.935c-0.865 1.275-2.308 2.102-3.944 2.102-0.444 0-0.873-0.061-1.281-0.175l0.033 0.008z" fill="rgb(33, 34, 35)"></path><path d="M622.316 85.996l5.192 1.935c-0.374 0.106-0.804 0.167-1.247 0.167-1.636 0-3.079-0.827-3.934-2.085l-0.011-0.017z" fill="rgb(33, 34, 35)"></path><path d="M377.047 93.389l5.028-2.048c-0.833 1.317-2.283 2.179-3.933 2.179-0.389 0-0.766-0.048-1.127-0.138l0.032 0.007z" fill="rgb(33, 34, 35)"></path><path d="M641.198 91.351l5.018 2.048c-0.326 0.082-0.701 0.129-1.086 0.129-1.649 0-3.098-0.861-3.92-2.158l-0.011-0.019z" fill="rgb(33, 34, 35)"></path><path d="M657.398 96.768l4.895 2.109c-0.299 0.070-0.642 0.11-0.994 0.11-1.651 0-3.095-0.881-3.889-2.199l-0.011-0.020z" fill="rgb(33, 34, 35)"></path><path d="M600.822 81.121l4.905 1.485z" fill="rgb(33, 34, 35)"></path><path d="M587.5 78.909c1.239-1.024 2.048-0.358 2.755 0.717z" fill="rgb(33, 34, 35)"></path><path d="M433.009 79.616c0.707-1.024 1.516-1.731 2.765-0.717z" fill="rgb(33, 34, 35)"></path><path d="M519.27 591.401c25.293 1.454 48.497 5.427 65.966 24.658 3.072 3.359 7.26 6.81 6.851 11.264-1.352 14.623 7.772 17.551 19.22 21.504 38.912 13.312 58.634 50.596 46.674 85.719-5.498 18.056-22.004 30.967-41.525 30.967-0.882 0-1.757-0.026-2.626-0.078l0.12 0.006c-8.765 0.184-11.653 2.918-10.885 11.766 1.444 16.538 2.181 33.147 2.621 49.746 0.481 18.135-2.243 35.615-19.722 45.66-7.462 4.356-16.427 6.928-25.992 6.928-11.324 0-21.807-3.604-30.362-9.728l0.158 0.107c-2.058-1.92-4.83-3.098-7.876-3.098-3.104 0-5.923 1.224-8 3.215l0.004-0.004c-6.634 4.809-14.774 7.935-23.6 8.602l-0.156 0.009c-34.14 3.277-55.695-18.493-52.716-52.89 1.393-16.087 1.843-32.266 3.021-48.374 0.41-5.612-1.26-8.612-7.219-8.417-2.693 0.082-5.396-0.102-8.090 0-21.361 0.625-39.67-5.571-48.957-26.225-3.671-7.505-5.818-16.332-5.818-25.66 0-13.498 4.495-25.945 12.069-35.928l-0.107 0.148c11.225-16.239 27.725-28.139 46.985-33.281l0.58-0.132c3.922-1.024 9.39-0.666 9.083-7.557-1.024-24.515 16.445-34.243 35.021-42.076 11.742-4.431 25.316-6.997 39.489-6.997 2.038 0 4.063 0.053 6.074 0.158l-0.282-0.012zM606.239 747.336c9.964-1.587 25.17 0.942 32.164-15.544 2.495-5.283 3.952-11.476 3.952-18.009 0-11.457-4.48-21.868-11.783-29.576l0.018 0.019c-7.817-9.031-18.069-15.757-29.736-19.171l-0.442-0.111c-1.624-0.642-3.504-1.014-5.472-1.014-3.554 0-6.825 1.214-9.419 3.251l0.033-0.025c-19.056 14.246-43.081 22.81-69.107 22.81-22.625 0-43.739-6.472-61.59-17.667l0.485 0.284c-5.184-3.346-11.518-5.335-18.316-5.335-8.331 0-15.965 2.987-21.889 7.948l0.053-0.043c-6.863 4.448-12.608 9.99-17.144 16.444l-0.131 0.196c-5.252 6.911-8.414 15.661-8.414 25.148 0 6.64 1.549 12.918 4.304 18.493l-0.109-0.244c6.277 13.681 19.22 14.408 32.072 14.93 0.53 0.009 1.155 0.014 1.781 0.014 19.228 0 37.311-4.902 53.068-13.523l-0.577 0.289c11.118-5.828 24.289-9.248 38.259-9.248 14.235 0 27.642 3.551 39.381 9.816l-0.451-0.22c13.338 6.428 29.003 10.183 45.544 10.183 1.218 0 2.432-0.020 3.64-0.061l-0.176 0.005zM511.57 798.034c0-13.926-0.215-27.863 0.092-41.789 0.143-6.339-1.311-9.841-8.243-7.045q-20.48 8.243-40.694 16.916c-1.579 0.765-2.743 2.177-3.156 3.882l-0.008 0.040c-1.444 24.095-5.939 48.282-1.751 72.294 2.335 13.425 15.217 19.896 30.577 17.285s24.76-9.001 23.378-25.211c-1.024-12.042-0.195-24.248-0.195-36.372zM531.937 797.338c0 12.585 0.225 25.17-0.061 37.745-0.041 0.504-0.064 1.092-0.064 1.684 0 10.788 7.694 19.778 17.895 21.783l0.141 0.023c21.453 6.595 37.028-4.096 37.059-26.532 0-19.722-1.69-39.434-2.355-59.167-0.174-5.038-2.284-6.717-7.066-7.762-13.199-2.77-24.905-7.267-35.612-13.323l0.612 0.318c-8.438-4.803-10.957-1.219-10.66 7.485 0.42 12.564 0.102 25.16 0.113 37.745z" fill="rgb(15, 17, 17)"></path><path d="M306.227 282.102c0.091-0 0.199-0 0.307-0 98.404 0 178.176 79.772 178.176 178.176s-79.772 178.176-178.176 178.176c-98.292 0-177.995-79.591-178.176-177.841l-0-0.017c-0-0.094-0-0.206-0-0.318 0-98.296 79.597-178.001 177.852-178.176l0.017-0zM473.784 460.349c0-0.021 0-0.046 0-0.071 0-92.37-74.88-167.25-167.25-167.25s-167.25 74.88-167.25 167.25c0 92.37 74.88 167.25 167.25 167.25 0.097 0 0.194-0 0.292-0l-0.015 0c92.12-0.417 166.672-75.041 166.973-167.149l0-0.029z" fill="rgb(34, 35, 36)"></path><path d="M726.702 638.464c-98.046-0.472-177.345-80.062-177.345-178.174 0-98.404 79.772-178.176 178.176-178.176s178.176 79.772 178.176 178.176c0 0.287-0.001 0.575-0.002 0.862l0-0.044c-0.464 98.052-80.058 177.359-178.174 177.359-0.292 0-0.584-0.001-0.876-0.002l0.045 0zM728.515 293.038c-0.295-0.002-0.643-0.003-0.992-0.003-92.37 0-167.25 74.88-167.25 167.25s74.88 167.25 167.25 167.25c92.127 0 166.857-74.488 167.248-166.523l0-0.038c0-0.060 0-0.131 0-0.201 0-92.121-74.255-166.899-166.177-167.744l-0.080-0.001z" fill="rgb(34, 35, 36)"></path><path d="M606.249 747.325c-1.072 0.039-2.332 0.060-3.596 0.060-16.494 0-32.117-3.734-46.067-10.404l0.645 0.278c-11.288-6.045-24.694-9.596-38.93-9.596-13.97 0-27.141 3.42-38.722 9.468l0.462-0.22c-15.18 8.333-33.263 13.234-52.491 13.234-0.626 0-1.251-0.005-1.875-0.016l0.094 0.001c-12.851-0.522-25.795-1.249-32.072-14.93-2.646-5.331-4.195-11.609-4.195-18.249 0-9.488 3.162-18.237 8.489-25.252l-0.075 0.103c4.667-6.65 10.412-12.192 17.036-16.495l0.239-0.145c5.87-4.918 13.504-7.905 21.835-7.905 6.798 0 13.131 1.989 18.451 5.416l-0.135-0.081c17.366 10.91 38.48 17.383 61.105 17.383 26.026 0 50.051-8.564 69.412-23.028l-0.305 0.218c2.562-2.012 5.832-3.226 9.386-3.226 1.968 0 3.848 0.372 5.576 1.050l-0.104-0.036c12.108 3.525 22.36 10.251 30.111 19.203l0.067 0.079c7.285 7.689 11.765 18.099 11.765 29.556 0 6.533-1.457 12.726-4.063 18.272l0.111-0.263c-6.994 16.466-22.19 13.947-32.154 15.524z" fill="rgb(243, 195, 141)"></path><path d="M511.57 798.003c0 12.134-0.819 24.33 0.205 36.383 1.372 16.22-7.997 22.6-23.378 25.211s-28.242-3.86-30.577-17.285c-4.178-24.023 0.317-48.21 1.751-72.294 0.422-1.745 1.585-3.157 3.13-3.907l0.035-0.015q20.255-8.673 40.694-16.916c6.932-2.796 8.387 0.717 8.243 7.045-0.317 13.937-0.102 27.873-0.102 41.779z" fill="rgb(249, 249, 249)"></path><path d="M531.937 797.327c0-12.585 0.317-25.17-0.113-37.745-0.297-8.704 2.222-12.288 10.66-7.485 10.095 5.738 21.801 10.235 34.197 12.862l0.803 0.142c4.782 1.024 6.892 2.724 7.066 7.762 0.666 19.732 2.386 39.444 2.355 59.167 0 22.528-15.606 33.126-37.059 26.532-10.341-2.028-18.035-11.018-18.035-21.806 0-0.593 0.023-1.18 0.069-1.761l-0.005 0.077c0.287-12.575 0.061-25.16 0.061-37.745z" fill="rgb(247, 247, 247)"></path><path d="M473.784 460.349c-0.035 92.343-74.902 167.188-167.25 167.188-92.37 0-167.25-74.88-167.25-167.25s74.88-167.25 167.25-167.25c0.14 0 0.281 0 0.421 0.001l-0.022-0c92.123 0.464 166.648 75.151 166.851 167.292l0 0.019zM306.401 403.61c-31.24 0.083-56.533 25.427-56.533 56.678 0 31.303 25.376 56.678 56.678 56.678s56.678-25.376 56.678-56.678c0-0.166-0.001-0.331-0.002-0.496l0 0.025c-0.376-31.106-25.666-56.181-56.819-56.207l-0.003-0z" fill="rgb(254, 254, 254)"></path><path d="M728.525 293.038c91.944 0.561 166.261 75.225 166.261 167.247 0 92.37-74.88 167.25-167.25 167.25s-167.25-74.88-167.25-167.25c0-0.478 0.002-0.955 0.006-1.432l-0 0.073c1.041-91.84 75.734-165.889 167.721-165.889 0.18 0 0.36 0 0.54 0.001l-0.028-0zM673.556 457.011c-0.002 0.17-0.003 0.372-0.003 0.573 0 31.308 25.38 56.689 56.689 56.689s56.689-25.38 56.689-56.689c0-31.228-25.25-56.559-56.448-56.688l-0.012-0c-0.014-0-0.030-0-0.046-0-31.144 0-56.441 25.033-56.867 56.075l-0 0.040z" fill="rgb(254, 254, 254)"></path><path d="M306.401 403.599c0.039-0 0.086-0 0.133-0 31.303 0 56.678 25.376 56.678 56.678s-25.376 56.678-56.678 56.678c-31.303 0-56.678-25.376-56.678-56.678 0-0.068 0-0.137 0-0.205l-0 0.011c0.196-31.137 25.403-56.322 56.53-56.484l0.015-0zM333.23 457.615c-0.091-0.002-0.198-0.003-0.306-0.003-9.743 0-17.708 7.615-18.267 17.218l-0.002 0.049c-0.012 0.239-0.018 0.519-0.018 0.8 0 9.589 7.704 17.379 17.26 17.519l0.013 0c0.346 0.025 0.75 0.039 1.157 0.039 9.437 0 17.088-7.644 17.101-17.077l0-0.001c0.026-0.357 0.041-0.773 0.041-1.193 0-9.467-7.556-17.168-16.966-17.403l-0.022-0z" fill="rgb(30, 28, 28)"></path><path d="M673.546 457.021c0.323-31.062 25.578-56.118 56.686-56.118 31.308 0 56.689 25.38 56.689 56.689s-25.38 56.689-56.689 56.689c-0.319 0-0.638-0.003-0.956-0.008l0.048 0.001c-30.935-0.609-55.779-25.829-55.779-56.852 0-0.14 0.001-0.281 0.002-0.421l-0 0.022zM773.898 473.528c0.027-0.364 0.042-0.788 0.042-1.215 0-9.442-7.517-17.128-16.893-17.401l-0.025-0.001c-0.107-0.002-0.234-0.004-0.36-0.004-9.722 0-17.673 7.582-18.264 17.155l-0.003 0.052c-0.016 0.276-0.024 0.599-0.024 0.924 0 9.568 7.674 17.343 17.202 17.508l0.015 0c0.352 0.026 0.763 0.041 1.178 0.041 9.428 0 17.073-7.634 17.091-17.058l0-0.002z" fill="rgb(30, 28, 28)"></path><path d="M333.22 457.615c9.426 0.242 16.975 7.941 16.975 17.403 0 0.405-0.014 0.808-0.041 1.206l0.003-0.054c-0.013 9.435-7.664 17.079-17.101 17.079-0.407 0-0.811-0.014-1.211-0.042l0.054 0.003c-9.569-0.14-17.273-7.93-17.273-17.519 0-0.282 0.007-0.562 0.020-0.84l-0.001 0.039c0.556-9.657 8.523-17.277 18.27-17.277 0.107 0 0.214 0.001 0.321 0.003l-0.016-0z" fill="rgb(246, 245, 246)"></path><path d="M773.847 473.528c-0.039 9.409-7.676 17.022-17.090 17.022-0.432 0-0.861-0.016-1.286-0.048l0.057 0.003c-9.544-0.165-17.217-7.94-17.217-17.508 0-0.325 0.009-0.648 0.026-0.969l-0.002 0.045c0.593-9.625 8.544-17.207 18.266-17.207 0.127 0 0.253 0.001 0.379 0.004l-0.019-0c9.407 0.266 16.931 7.955 16.931 17.401 0 0.442-0.016 0.88-0.049 1.314l0.003-0.058z" fill="rgb(246, 245, 246)"></path></svg>