<svg class="jss110" width="100%" height="100%" viewBox="0 0 1024 1024" xmlns="http://www.w3.org/2000/svg" style="display: flex; vertical-align: middle; min-width: auto;"><path d="M104.468 656.435c103.352 181.688 250.655 280.771 460.718 263.168 126.228-10.578 226.068-73.789 302.674-175.872l-86.241 18.258-2.048-3.922 182.63-219.31c8.1 98.673 15.688 191.252 23.286 283.843l-4.311 2.888c-14.049-15.36-28.293-30.556-42.107-46.131-22.886-25.815-22.764-25.917-41.052 2.294-80.018 122.888-216.739 202.997-372.172 202.997-129.892 0-246.717-55.946-327.694-145.055l-0.325-0.363c-42.591-46.308-74.253-103.34-90.475-166.562l-0.589-2.705c-0.717-3.031-1.034-6.154-2.294-13.527z" fill="rgb(156, 142, 233)" stroke="rgb(156, 142, 233)" stroke-linejoin="miter" stroke-linecap="butt" stroke-miterlimit="4" stroke-width="40.96"></path><path d="M45.251 283.279c13.486 12.063 27.402 23.685 40.325 36.332 10.875 10.629 15.923 12.349 23.183-4.669 54.733-128.492 149.268-214.18 282.86-254.802 219.464-66.744 453.816 46.080 535.685 256.768 7.951 19.297 13.94 41.726 16.921 65.095l0.139 1.331c-105.042-199.803-263.813-305.019-494.254-272.794-152.668 21.35-265.492 132.321-311.296 226.847l72.776-22.303-130.529 192.512c-14.049-77.824-27.054-149.903-40.059-221.962z" fill="rgb(156, 142, 233)" stroke="rgb(156, 142, 233)" stroke-linejoin="miter" stroke-linecap="butt" stroke-miterlimit="4" stroke-width="40.96"></path></svg>