<svg class="jss110" width="100%" height="100%" viewBox="0 0 1024 1024" xmlns="http://www.w3.org/2000/svg" style="display: flex; vertical-align: middle; min-width: auto;"><path d="M340.361 994.664c-0.064 0-0.14 0-0.216 0-24.818 0-46.931-11.578-61.235-29.627l-0.124-0.163-231.725-288.012c-10.862-13.263-17.445-30.396-17.445-49.067 0-6.537 0.807-12.886 2.326-18.951l-0.114 0.536 82.755-359.446c5.523-23.908 21.414-43.276 42.566-53.424l0.47-0.204 335.029-160.346c10.054-5.012 21.899-7.946 34.43-7.946s24.376 2.934 34.887 8.151l-0.458-0.205 334.96 159.561c21.624 10.352 37.513 29.72 42.934 53.099l0.103 0.528 82.755 359.446c1.289 5.375 2.029 11.546 2.029 17.889 0 18.813-6.504 36.106-17.385 49.755l0.125-0.162-231.671 288.135c-14.652 18.038-36.745 29.538-61.532 29.789h-0.042l-373.424 0.661z" fill="rgb(50, 109, 230)"></path><path d="M526.406 44.569c0.002 0 0.005 0 0.008 0 9.846 0 19.178 2.198 27.533 6.131l-0.395-0.167 335.029 159.561c17.178 8.5 29.819 23.962 34.34 42.597l0.091 0.439 82.755 359.446c1.117 4.4 1.758 9.452 1.758 14.654 0 15.12-5.415 28.976-14.41 39.733l0.080-0.097-231.74 288.081c-11.658 14.573-29.44 23.826-49.382 23.826-0.098 0-0.196 0-0.294-0.001h-371.413c-0.085 0-0.185 0.001-0.285 0.001-19.941 0-37.721-9.253-49.279-23.701l-0.097-0.126-231.725-288.012c-8.717-11.114-13.978-25.3-13.978-40.715 0-4.806 0.511-9.494 1.483-14.009l-0.079 0.435 82.755-359.446c4.463-19.144 17.154-34.661 34.054-42.873l0.376-0.165 335.015-160.304c8.24-3.262 17.782-5.199 27.762-5.302h0.043zM526.406 13.444v0c-14.918 0.165-29.001 3.564-41.637 9.527l0.611-0.259-335.029 160.223c-25.94 12.369-45.009 35.568-51.521 63.585l-0.124 0.633-82.769 359.529c-1.592 6.472-2.506 13.902-2.506 21.546 0 22.534 7.94 43.214 21.176 59.393l-0.132-0.167 231.74 288.012c17.286 21.47 43.567 35.092 73.031 35.092 0.161 0 0.32 0 0.481-0.001h371.404c0.137 0.001 0.3 0.001 0.463 0.001 29.462 0 55.741-13.622 72.884-34.912l0.14-0.18 231.74-288.012c13.12-15.959 21.075-36.597 21.075-59.094 0-7.693-0.93-15.168-2.684-22.319l0.132 0.641-82.742-359.515c-6.633-28.65-25.704-51.85-51.080-63.975l-0.566-0.243-333.693-160.236c-11.813-5.775-25.695-9.186-40.365-9.268h-0.028z" fill="rgb(255, 255, 255)"></path><path d="M862.095 584.165h-0.661c-0.661 0-1.377 0-1.377-0.661-1.377 0-2.645-0.661-3.966-0.661-3.663-0.7-7.99-1.193-12.397-1.371l-0.177-0.006c-0.26 0.010-0.566 0.016-0.872 0.016-2.041 0-4.024-0.246-5.921-0.712l0.17 0.035h-0.606c-13.090-0.817-25.314-2.943-37.038-6.261l1.231 0.298c-3.344-1.342-5.944-3.942-7.254-7.199l-0.031-0.087c0-0.661-0.661-0.661-0.661-1.377v0l-8.608-2.645c1.405-10.189 2.207-21.963 2.207-33.924 0-21.081-2.491-41.58-7.195-61.219l0.36 1.784c-7.85-32.909-20.632-61.888-37.708-87.787l0.634 1.023 6.624-5.963v-1.377c-0.006-0.16-0.010-0.347-0.010-0.535 0-3.571 1.25-6.849 3.337-9.423l-0.021 0.028c8.748-7.364 18.499-14.155 28.843-20.020l0.959-0.501c1.984-1.377 3.966-1.984 5.963-3.305 4.388-2.222 8.069-4.423 11.589-6.843l-0.337 0.219c0.661-0.661 1.984-1.377 3.305-2.645 0.661-0.661 1.377-0.661 1.377-1.377v0c5.158-4.087 8.437-10.35 8.437-17.379 0-4.632-1.424-8.932-3.858-12.485l0.049 0.076c-3.479-4.453-8.85-7.288-14.884-7.288-0.123 0-0.244 0.001-0.367 0.004h0.019c-5.543 0.162-10.596 2.133-14.621 5.341l0.050-0.038-1.377 1.377c-1.377 0.661-1.984 1.984-3.305 2.645-3.012 2.892-5.825 5.915-8.463 9.089l-0.145 0.179c-1.392 1.723-2.911 3.245-4.571 4.597l-0.056 0.045c-7.899 8.861-16.54 16.745-25.927 23.679l-0.461 0.324c-1.659 1.197-3.721 1.932-5.951 1.983h-0.013c-0.193 0.016-0.418 0.024-0.645 0.024-1.201 0-2.343-0.252-3.376-0.707l0.054 0.021h-1.377l-7.947 5.302c-8.467-8.798-17.32-17.022-26.614-24.734l-0.531-0.427c-38.133-30.026-85.542-49.909-137.31-54.867l-1.070-0.083-0.661-8.608-1.377-1.377c-2.731-2.061-4.655-5.066-5.289-8.523l-0.013-0.085c-0.035-1.511-0.056-3.292-0.056-5.078 0-10.836 0.741-21.498 2.174-31.941l-0.136 1.211v-0.661c0.151-2.418 0.643-4.674 1.43-6.787l-0.054 0.163c0.661-3.966 1.377-7.947 1.984-12.574v-5.908c0.038-0.466 0.060-1.009 0.060-1.557 0-11.158-9.045-20.203-20.203-20.203-5.916 0-11.238 2.542-14.933 6.595l-0.015 0.016c-3.692 3.777-5.971 8.952-5.971 14.657 0 0.203 0.003 0.403 0.009 0.604l-0.001-0.029v5.302c-0.001 0.107-0.002 0.235-0.002 0.361 0 4.369 0.726 8.568 2.065 12.483l-0.081-0.272c0.661 1.984 0.661 3.966 1.377 6.624v0.661c1.396 8.208 2.195 17.663 2.195 27.304 0 2.991-0.077 5.964-0.229 8.917l0.017-0.414c-0.647 3.541-2.571 6.546-5.267 8.583l-0.035 0.025-1.377 1.377-0.661 8.608c-13.767 1.293-25.989 3.166-37.973 5.683l2.167-0.381c-51.992 11.618-96.667 37.755-130.889 73.893l-0.11 0.117-6.624-4.641h-1.377c-1.377 0-2.645 0.661-3.966 0.661-2.243-0.052-4.304-0.787-5.994-2.005l0.031 0.021c-9.851-7.435-18.523-15.478-26.319-24.31l-0.165-0.19c-1.395-1.724-2.917-3.245-4.583-4.596l-0.057-0.045c-2.784-3.354-5.597-6.376-8.571-9.234l-0.037-0.035c-0.661-0.661-1.984-1.377-3.305-2.645-0.661-0.661-1.377-0.661-1.377-1.377v0c-3.928-3.265-9.012-5.26-14.561-5.302h-0.009c-0.104-0.002-0.226-0.003-0.349-0.003-6.033 0-11.403 2.836-14.852 7.247l-0.031 0.042c-2.383 3.476-3.804 7.773-3.804 12.403 0 7.033 3.282 13.299 8.4 17.351l0.046 0.035c0.661 0 0.661 0.661 1.377 0.661 1.377 0.661 1.984 1.984 3.305 2.645 3.182 2.203 6.865 4.403 10.691 6.363l0.561 0.261c2.277 0.917 4.243 2.027 6.036 3.356l-0.072-0.052c11.298 6.364 21.044 13.156 30.082 20.761l-0.294-0.241c2.102 2.183 3.397 5.156 3.397 8.432 0 0.528-0.034 1.048-0.099 1.558l0.006-0.060v1.377l6.624 5.963c-1.279 1.533-2.384 3.278-3.245 5.157l-0.059 0.145c-24.952 38.995-39.773 86.56-39.773 137.586 0 13.128 0.981 26.026 2.874 38.626l-0.175-1.42-8.608 2.645c0 0.661-0.661 0.661-0.661 1.377-1.55 3.207-4.079 5.735-7.194 7.246l-0.092 0.040c-10.523 3.082-22.752 5.211-35.358 5.943l-0.45 0.020h-0.661c-0.328-0.018-0.712-0.026-1.098-0.026-1.963 0-3.868 0.251-5.683 0.723l0.157-0.034c-4.584 0.184-8.911 0.678-13.134 1.464l0.56-0.087c-1.377 0-2.645 0.661-3.966 0.661-0.089-0.012-0.191-0.018-0.295-0.018-0.655 0-1.25 0.259-1.688 0.68l0.001-0.001c-10.023 2.054-17.454 10.802-17.454 21.284 0 1.134 0.087 2.249 0.255 3.337l-0.016-0.122c2.356 8.86 10.306 15.282 19.755 15.282 0.501 0 0.999-0.019 1.492-0.054l-0.066 0.004c0.262 0.017 0.568 0.026 0.875 0.026 1.581 0 3.104-0.251 4.53-0.717l-0.103 0.029c0.661 0 1.377 0 1.377-0.661 1.377 0 2.645-0.661 3.966-0.661 4.575-1.281 8.529-2.859 12.268-4.795l-0.355 0.167c1.984-0.661 3.966-1.984 5.963-2.645h0.661c9.879-4.211 21.436-7.658 33.45-9.786l0.98-0.144h1.377c3.291 0.164 6.27 1.384 8.633 3.325l-0.025-0.020c0.661 0 0.661 0.661 1.377 0.661v0l9.268-1.377c16.772 50.512 46.905 92.818 86.225 124.058l0.538 0.413c8.247 6.431 17.541 12.77 27.228 18.518l1.239 0.681-3.966 8.608c0 0.661 0.661 0.661 0.661 1.377 1.185 1.976 1.886 4.359 1.886 6.907 0 1.312-0.186 2.579-0.533 3.779l0.023-0.096c-5.239 11.949-10.994 22.171-17.621 31.745l0.406-0.62v0.661c-1.377 1.984-2.645 3.305-3.966 5.302-2.645 3.305-4.641 6.624-7.286 10.59-0.769 0.954-1.433 2.043-1.947 3.212l-0.036 0.093c-0.062 0.541-0.303 1.018-0.661 1.377v0c-1.587 2.88-2.521 6.313-2.521 9.963 0 7.976 4.458 14.91 11.017 18.449l0.111 0.055c2.307 1.222 5.038 1.951 7.936 1.984h0.010c8.596-0.43 15.95-5.358 19.797-12.462l0.062-0.126c0.062-0.541 0.303-1.018 0.661-1.377v0c0.551-1.262 1.215-2.351 2.005-3.333l-0.022 0.028c1.242-3.021 2.596-6.983 3.751-11.029l0.216-0.884 1.984-5.963c3.718-12.622 8.45-23.582 14.311-33.813l-0.401 0.76c2.149-2.793 5.091-4.878 8.487-5.931l0.121-0.032c0.661 0 0.661 0 1.377-0.661v0l4.627-8.608c27.498 10.884 59.352 17.202 92.68 17.215h0.006c0.461 0.003 1.005 0.005 1.549 0.005 19.893 0 39.221-2.417 57.708-6.973l-1.65 0.344c13.766-3.092 25.28-6.507 36.478-10.582l-2.049 0.651 3.966 7.286c0.661 0 0.661 0 1.377 0.661 3.699 0.632 6.781 2.845 8.576 5.906l0.031 0.057c4.897 9.203 9.597 20.128 13.427 31.455l0.469 1.598v0.661l1.984 5.963c1.182 4.668 2.539 8.636 4.173 12.457l-0.206-0.544c0.661 1.377 1.377 1.984 1.984 3.305 0.061 0.542 0.302 1.019 0.661 1.377v0c3.696 7.418 11.174 12.454 19.841 12.588h0.018c2.909-0.031 5.64-0.76 8.042-2.029l-0.096 0.047c4.76-2.469 8.327-6.683 9.892-11.773l0.037-0.14c0.552-1.917 0.871-4.12 0.871-6.397 0-3.677-0.829-7.161-2.31-10.274l0.062 0.145c0-0.661-0.661-0.661-0.661-1.377-0.549-1.262-1.214-2.351-2.005-3.333l0.021 0.028c-2.192-4.020-4.608-7.489-7.351-10.668l0.065 0.078c-1.377-1.984-2.645-3.305-3.966-5.302v-0.661c-6.561-8.988-12.337-19.236-16.854-30.139l-0.361-0.985c-0.307-1.26-0.483-2.706-0.483-4.194 0-2.297 0.42-4.495 1.186-6.523l-0.042 0.127c0-0.661 0.661-0.661 0.661-1.377v0l-3.305-7.947c54.195-32.816 94.93-83.214 114.673-143.148l0.53-1.856 7.947 1.377c0.661 0 0.661-0.661 1.377-0.661 2.389-1.809 5.335-3.005 8.542-3.3l0.066-0.005h1.377c12.994 2.272 24.552 5.719 35.5 10.329l-1.070-0.4h0.661c1.984 0.661 3.966 1.984 5.963 2.645 3.382 1.766 7.337 3.343 11.461 4.517l0.452 0.11c1.377 0 2.645 0.661 3.966 0.661 0.091-0.012 0.194-0.019 0.3-0.019 0.654 0 1.247 0.259 1.684 0.681l-0.001-0.001c1.323 0.436 2.846 0.687 4.429 0.687 0.308 0 0.612-0.010 0.915-0.028l-0.042 0.002c0.013 0 0.028 0 0.043 0 9.784 0 18.095-6.306 21.091-15.075l0.047-0.157c-1.251-10.671-8.936-19.252-19.022-21.818l-0.176-0.038zM555.547 551.76l-29.128 13.868-29.141-13.868-7.286-31.111 19.9-25.202h32.447l19.887 25.162-6.679 31.152zM728.357 482.9c3.504 14.319 5.512 30.759 5.512 47.667 0 6.764-0.321 13.452-0.95 20.050l0.065-0.841-101.306-29.128c-7.579-2.197-13.026-9.075-13.026-17.226 0-1.417 0.165-2.796 0.476-4.118l-0.024 0.122c0.69-2.853 2.077-5.318 3.972-7.29l-0.005 0.006 80.111-72.165c11.067 18.11 19.749 39.127 24.899 61.495l0.277 1.428zM671.409 380.272l-86.763 61.574c-2.658 1.69-5.897 2.694-9.37 2.694-5.576 0-10.548-2.587-13.78-6.625l-0.027-0.035c-1.69-1.993-2.867-4.473-3.294-7.202l-0.011-0.083-5.963-107.917c46.91 5.546 88.114 26.511 119.18 57.607l0.001 0.001zM479.402 325.9c7.286-1.377 13.896-2.645 21.181-3.966l-5.963 105.933c-0.494 9.543-8.298 17.107-17.893 17.215h-0.011c-0.086 0.002-0.188 0.003-0.289 0.003-2.811 0-5.451-0.736-7.735-2.026l0.079 0.041-88.057-62.896c26.298-26.31 59.817-45.398 97.329-54.039l1.359-0.264zM348.968 419.963l78.789 70.237c3.7 3.248 6.024 7.988 6.024 13.269 0 4.281-1.526 8.206-4.063 11.259l0.023-0.029c-1.874 2.647-4.643 4.553-7.858 5.285l-0.089 0.017-102.629 29.789c-0.575-5.87-0.902-12.69-0.902-19.585 0-40.715 11.416-78.763 31.221-111.12l-0.531 0.933zM331.065 599.396l105.272-17.903c0.323-0.020 0.7-0.033 1.080-0.033 8.478 0 15.581 5.893 17.433 13.808l0.024 0.121c0.294 1.251 0.464 2.688 0.464 4.163 0 2.306-0.412 4.515-1.167 6.559l0.043-0.131-40.393 97.326c-37.804-24.728-66.643-60.409-82.285-102.507l-0.469-1.443zM572.734 731.152c-13.89 3.277-29.866 5.203-46.274 5.302h-0.068c-23.934-0.138-46.916-4.002-68.464-11.039l1.587 0.449 52.333-94.682c3.211-3.932 8.060-6.422 13.49-6.422 2.801 0 5.448 0.663 7.791 1.84l-0.1-0.046c3.138 1.943 5.777 4.371 7.893 7.211l0.054 0.075 50.956 92.037c-5.963 1.984-12.574 3.305-19.198 5.302zM701.846 639.128c-16.567 25.949-37.822 47.415-62.755 63.726l-0.802 0.493-41.632-99.984c-0.379-1.372-0.597-2.948-0.597-4.574 0-6.943 3.97-12.959 9.764-15.9l0.101-0.047c2.622-1.253 5.699-1.985 8.948-1.985 0.113 0 0.225 0.001 0.338 0.003h-0.017l105.933 17.903c-4.419 15.392-10.984 28.831-19.477 40.807l0.278-0.414z" fill="rgb(255, 255, 255)"></path></svg>