<svg class="jss110" width="100%" height="100%" viewBox="0 0 1024 1024" xmlns="http://www.w3.org/2000/svg" style="display: flex; vertical-align: middle; min-width: auto;"><path d="M140.173 211.167c0-0.046 0-0.101 0-0.155 0-45.861 37.178-83.039 83.039-83.039 0.054 0 0.109 0 0.163 0h577.27c0.046 0 0.101 0 0.155 0 45.861 0 83.039 37.178 83.039 83.039 0 0.054 0 0.109 0 0.163v-0.008 160.054h-743.665z" fill="rgb(235, 13, 114)"></path><path d="M140.173 652.778h355.836v243.196h-275.189c-44.671-0.585-80.659-36.935-80.659-81.69 0-0.511 0.005-1.020 0.014-1.528l-0.001 0.076v-160.054z" fill="rgb(0, 169, 229)"></path><path d="M526.746 652.778h355.836v160.054c0.009 0.448 0.014 0.975 0.014 1.504 0 44.755-35.989 81.105-80.605 81.689l-0.055 0.001h-275.189z" fill="rgb(254, 209, 10)"></path><path d="M140.173 396.778h742.391v230.391h-742.391z" fill="rgb(62, 190, 176)"></path></svg>