<svg class="jss110" width="100%" height="100%" viewBox="0 0 1024 1024" xmlns="http://www.w3.org/2000/svg" style="display: flex; vertical-align: middle; min-width: auto;"><path d="M707.676 83.395c9.527 6.946 17.902 14.399 25.499 22.582l0.101 0.11q102.861 102.943 205.824 205.824c21.504 21.504 21.432 34.478-0.358 56.32-16.015 16.026-31.939 32.133-48.128 48.015-15.759 15.514-31.457 15.831-47.104 0.225q-110.797-110.408-221.184-221.184c-16.599-16.66-16.179-32.041 0.532-48.876 16.558-16.691 33.382-33.106 49.746-49.981 5.094-4.692 10.721-8.97 16.728-12.69l0.475-0.274z" fill="rgb(246, 168, 28)"></path><path d="M787.517 439.276c0.020 0.399 0.032 0.866 0.032 1.337 0 8.012-3.389 15.233-8.813 20.307l-0.016 0.015c-19.558 19.712-39.342 39.188-58.726 59.054-4.28 4.393-6.595 4.096-11.264 0.297-55.788-44.943-112.804-49.592-174.193-14.090-5.949 3.441-8.684 2.048-12.769-2.13-23.716-24.003-47.77-47.667-71.475-71.68-6.678-5.543-10.9-13.846-10.9-23.135 0-9.252 4.187-17.525 10.77-23.029l0.047-0.039q62.372-62.669 125.041-125.030c5.458-6.892 13.826-11.274 23.217-11.274 9.192 0 17.404 4.199 22.823 10.783l0.041 0.051q78.131 77.711 155.904 155.771c6.316 5.543 10.281 13.632 10.281 22.648 0 0.051-0 0.103-0 0.154l0-0.008z" fill="rgb(75, 95, 171)"></path><path d="M427.95 488.192c0.268-0.010 0.584-0.016 0.9-0.016 7.337 0 13.963 3.047 18.681 7.944l0.008 0.008c14.244 14.152 28.293 28.488 42.742 42.424 1.86 1.278 3.065 3.394 3.065 5.791 0 1.888-0.747 3.601-1.961 4.86l0.002-0.002c-14.589 21.908-23.28 48.833-23.28 77.787 0 20.532 4.37 40.044 12.231 57.656l-0.359-0.899c0.707 1.215 1.125 2.674 1.125 4.231 0 2.755-1.308 5.205-3.337 6.762l-0.020 0.015c-34.222 34.038-68.168 68.352-102.543 102.236-5.014 5.286-12.089 8.575-19.933 8.575-7.996 0-15.193-3.418-20.211-8.873l-0.018-0.020q-47.002-46.316-93.348-93.297c-5.816-5.053-9.472-12.46-9.472-20.722 0-8.113 3.526-15.403 9.129-20.42l0.026-0.023q82.545-83.261 165.745-165.888c4.801-5.049 11.568-8.189 19.069-8.189 0.619 0 1.233 0.021 1.841 0.063l-0.082-0.005z" fill="rgb(75, 95, 171)"></path><path d="M611.615 531.384c0.192-0.001 0.419-0.002 0.646-0.002 52.363 0 94.837 42.339 95.057 94.65l0 0.021c0 0.061 0 0.133 0 0.205 0 52.683-42.708 95.391-95.391 95.391-52.611 0-95.274-42.591-95.391-95.175l-0-0.011c-0.001-0.116-0.001-0.253-0.001-0.39 0-52.295 42.394-94.689 94.689-94.689 0.137 0 0.274 0 0.411 0.001l-0.021-0zM611.236 579.256c-25.649 0.337-46.312 21.208-46.312 46.906 0 25.907 21.002 46.909 46.909 46.909s46.909-21.002 46.909-46.909c0-0.406-0.005-0.81-0.015-1.213l0.001 0.060c-1.086-25.428-21.911-45.645-47.483-45.752l-0.011-0z" fill="rgb(246, 168, 28)"></path><path d="M277.606 815.831c0.008 0.253 0.013 0.55 0.013 0.848 0 8.269-3.661 15.683-9.451 20.709l-0.034 0.029c-17.633 17.408-34.898 35.236-52.767 52.408-5.335 5.12-5.683 8.438 0.143 12.882 2.97 2.526 5.648 5.178 8.114 8.018l0.078 0.092c11.612 12.155 12.288 26.040 1.669 36.147-4.311 4.112-10.162 6.642-16.604 6.642-7.526 0-14.245-3.453-18.659-8.861l-0.034-0.043q-40.53-40.172-80.742-80.66c-6.042-6.042-12.288-11.909-18.053-18.207-4.335-4.3-7.018-10.26-7.018-16.846 0-6.453 2.576-12.305 6.757-16.582l-0.004 0.005c4.393-4.364 10.447-7.061 17.13-7.061 6.366 0 12.16 2.447 16.494 6.451l-0.016-0.015c5.857 4.884 10.107 14.961 16.876 14.51 7.956-0.543 12.677-10.445 18.739-16.323 13.496-13.097 26.501-26.706 40.008-39.782 14.49-14.029 28.273-13.885 42.639 0.102 8.878 8.653 17.51 17.551 26.317 26.276 5.172 4.632 8.412 11.33 8.412 18.784 0 0.168-0.002 0.335-0.005 0.502l0-0.025z" fill="rgb(246, 168, 28)"></path></svg>