<svg class="jss110" width="100%" height="100%" viewBox="0 0 1024 1024" xmlns="http://www.w3.org/2000/svg" style="display: flex; vertical-align: middle; min-width: auto;"><path d="M926.054 153.6h-836.577c-9.82 0.012-17.777 7.975-17.777 17.797l0 0v682.056c-0 0.015-0 0.033-0 0.051 0 9.822 7.956 17.785 17.776 17.797l836.609 0c9.829 0 17.797-7.968 17.797-17.797v0-682.107c0-9.829-7.968-17.797-17.797-17.797v0zM908.308 189.194v107.203h-801.024v-107.203zM107.336 835.645v-503.654h800.973v503.654h-801.024zM349.553 421.55h-142.336c-9.829 0-17.797 7.968-17.797 17.797v0 144.21c0 9.829 7.968 17.797 17.797 17.797v0h142.336c9.829 0 17.797-7.968 17.797-17.797v0-144.21c0-9.829-7.968-17.797-17.797-17.797v0zM331.756 565.719h-106.793v-108.544h106.742zM435.354 601.313h142.336c9.829 0 17.797-7.968 17.797-17.797v0-144.169c0-9.829-7.968-17.797-17.797-17.797v0h-142.336c-9.829 0-17.797 7.968-17.797 17.797v0 144.21c0.017 9.798 7.95 17.737 17.743 17.766l0.003 0zM453.151 457.144h106.67v108.544h-106.721zM663.491 601.313h142.336c9.829 0 17.797-7.968 17.797-17.797v0-144.169c0-9.829-7.968-17.797-17.797-17.797v0h-142.336c-9.829 0-17.797 7.968-17.797 17.797v0 144.21c0 9.829 7.968 17.797 17.797 17.797v0zM681.288 457.144h106.68v108.544h-106.732zM349.512 646.482h-142.336c-9.829 0-17.797 7.968-17.797 17.797s7.968 17.797 17.797 17.797h142.336c9.829 0 17.797-7.968 17.797-17.797s-7.968-17.797-17.797-17.797h-0zM349.512 712.346h-142.336c-9.829 0-17.797 7.968-17.797 17.797s7.968 17.797 17.797 17.797h142.336c9.829 0 17.797-7.968 17.797-17.797s-7.968-17.797-17.797-17.797h-0zM578.949 646.482h-142.336c-9.829 0-17.797 7.968-17.797 17.797s7.968 17.797 17.797 17.797h142.336c9.829 0 17.797-7.968 17.797-17.797s-7.968-17.797-17.797-17.797h-0zM578.949 712.346h-142.336c-9.829 0-17.797 7.968-17.797 17.797s7.968 17.797 17.797 17.797h142.336c9.829 0 17.797-7.968 17.797-17.797s-7.968-17.797-17.797-17.797h-0zM808.387 646.482h-142.336c-9.829 0-17.797 7.968-17.797 17.797s7.968 17.797 17.797 17.797h142.336c9.829 0 17.797-7.968 17.797-17.797s-7.968-17.797-17.797-17.797h-0zM808.387 712.346h-142.336c-9.829 0-17.797 7.968-17.797 17.797s7.968 17.797 17.797 17.797h142.336c9.829 0 17.797-7.968 17.797-17.797s-7.968-17.797-17.797-17.797h-0zM207.165 260.209h8.786c9.829 0 17.797-7.968 17.797-17.797s-7.968-17.797-17.797-17.797h-8.786c-9.829 0-17.797 7.968-17.797 17.797s7.968 17.797 17.797 17.797h0zM280.975 260.209h8.786c9.829 0 17.797-7.968 17.797-17.797s-7.968-17.797-17.797-17.797h-8.786c-9.829 0-17.797 7.968-17.797 17.797s7.968 17.797 17.797 17.797h0zM354.785 260.209h8.755c9.829 0 17.797-7.968 17.797-17.797s-7.968-17.797-17.797-17.797h-8.776c-9.829 0-17.797 7.968-17.797 17.797s7.968 17.797 17.797 17.797h0z" fill="rgb(172, 209, 173)"></path></svg>