<svg class="jss110" width="100%" height="100%" viewBox="0 0 1024 1024" xmlns="http://www.w3.org/2000/svg" style="display: flex; vertical-align: middle; min-width: auto;"><path d="M806.39 508.436c0-32.102 0.184-64.205-0.143-96.256-0.072-7.383 1.864-10.332 9.748-10.189 34.109 0.625 68.352-1.7 102.318 2.171 50.842 5.786 83.589 33.352 87.306 89.508 2.048 30.218-2.181 58.47-21.576 82.944-17.691 22.606-44.658 37.251-75.076 38.161l-0.147 0.003c-30.996 1.587-62.136 0.184-93.184 0.502-7.168 0.072-9.421-2.365-9.359-9.452 0.266-32.502 0.113-64.942 0.113-97.393zM870.124 508.774c0 15.698 0 31.396 0 47.104 0 3.277-0.737 7.741 4.198 7.864 13.527 0.348 27.3 2.314 39.741-5.775 15-11.576 24.567-29.559 24.567-49.776 0-7.069-1.17-13.866-3.326-20.206l0.13 0.442c-7.086-24.34-25.088-35.574-55.45-35.471-7.434 0-10.332 1.915-10.056 9.759 0.573 15.329 0.215 30.7 0.215 46.060z" fill="rgb(4, 121, 190)"></path><path d="M332.462 619.090c-59.331-0.481-105.626-41.851-105.134-107.919 0.543-71.373 49.306-111.872 106.66-111.616 66.376 0.287 107.715 42.537 107.52 110.019 0.039 1.073 0.061 2.334 0.061 3.6 0 58.522-47.441 105.964-105.964 105.964-1.105 0-2.207-0.017-3.304-0.051l0.161 0.004zM295.803 512.338c-0.023 0.648-0.036 1.409-0.036 2.174 0 9.011 1.832 17.595 5.143 25.399l-0.161-0.426c4.603 13.849 17.203 23.762 32.193 24.308l0.063 0.002c0.819 0.072 1.773 0.114 2.736 0.114 14.249 0 26.386-9.045 30.983-21.706l0.073-0.229c4.415-9.622 6.989-20.875 6.989-32.729 0-14.359-3.777-27.836-10.391-39.491l0.207 0.397c-5.754-10.12-16.464-16.834-28.741-16.834-9.299 0-17.698 3.851-23.689 10.046l-0.009 0.009c-12.718 12.442-15.196 28.355-15.36 48.968z" fill="rgb(83, 176, 173)"></path><path d="M24.084 578.345v-26.522c8.965 2.581 16.796 6.338 23.826 11.176l-0.274-0.178c10.4 4.772 22.562 7.555 35.375 7.555 2.283 0 4.545-0.088 6.783-0.262l-0.297 0.018c0.072 0.001 0.158 0.002 0.243 0.002 6.772 0 12.525-4.362 14.603-10.43l0.032-0.109c0.384-1.227 0.605-2.639 0.605-4.101 0-5.423-3.037-10.136-7.502-12.532l-0.076-0.037c-7.136-4.861-15.357-8.919-24.127-11.758l-0.684-0.192c-16.508-5.351-30.343-15.134-40.53-27.946l-0.133-0.173c-7.232-10.146-11.563-22.795-11.563-36.456 0-27.799 17.933-51.409 42.861-59.894l0.445-0.132c13.993-4.637 30.101-7.311 46.833-7.311 8.068 0 15.99 0.622 23.722 1.82l-0.861-0.11c8.11 0.666 16.108 2.621 24.166 3.973 5.148 0.107 9.28 4.306 9.28 9.47 0 0.565-0.049 1.119-0.144 1.656l0.008-0.057c-0.451 12.616-0.317 25.262-0.061 37.888 0.143 6.799-2.284 7.567-7.854 4.71-11.734-5.61-25.367-9.523-39.724-10.995l-0.53-0.044c-1.449-0.256-3.117-0.402-4.82-0.402-0.827 0-1.645 0.034-2.454 0.102l0.106-0.007c-8.98 1.024-18.76 2.048-21.207 12.616s6.492 14.49 14.1 18.545c17.408 9.216 36.506 15.002 51.948 28.262 12.817 11.219 20.867 27.611 20.867 45.883 0 15.407-5.724 29.478-15.161 40.201l0.058-0.068c-12.321 12.676-28.711 21.337-47.058 23.873l-0.425 0.048c-9.028 1.653-19.417 2.598-30.027 2.598-17.415 0-34.236-2.547-50.11-7.288l1.237 0.317c-8.704-2.345-13.793-6.287-12.38-16.312 0.241-2.915 0.378-6.31 0.378-9.737 0-2.699-0.085-5.378-0.253-8.035l0.018 0.363z" fill="rgb(55, 166, 229)"></path><path d="M503.112 508.068c0-31.744 0.287-63.549-0.184-95.304-0.133-8.755 2.857-11.151 11.172-10.824 14.336 0.573 28.672 0.522 43.008 0 7.772-0.276 9.902 2.591 9.851 10.097-0.276 45.773-0.143 91.556-0.133 137.329 0 14.674 0 14.684 14.193 14.684 16.742 0 33.485 0.287 50.176-0.123 7.24-0.174 9.615 2.437 9.329 9.513-0.451 11.264-0.307 22.528-0.051 33.792 0.133 5.632-1.843 7.916-7.67 7.895-40.653-0.154-81.306-0.215-121.958 0-7.731 0-7.864-4.168-7.844-9.779 0.164-32.379 0.113-64.829 0.113-97.28z" fill="rgb(213, 112, 144)"></path><path d="M681.605 509.522c0-32.102 0.225-64.195-0.154-96.256-0.102-8.397 2.488-11.612 11.1-11.264 14.664 0.532 29.368 0.399 44.032 0 7.27-0.174 10.445 2.048 10.414 9.871q-0.307 97.28 0 194.642c0 6.81-2.468 8.868-9.021 8.724-15.698-0.338-31.416-0.41-47.104 0-7.168 0.195-9.452-2.273-9.39-9.4 0.287-32.123 0.123-64.246 0.123-96.317z" fill="rgb(242, 190, 77)"></path></svg>